<svg xmlns="http://www.w3.org/2000/svg" width="56.436" height="85.157" viewBox="0 0 56.436 85.157">
  <g id="Group_637" data-name="Group 637" transform="translate(-1248.649 -615.464)">
    <path id="Path_247" data-name="Path 247" d="M52.509,1501.176l-.014.1a.91.91,0,0,1-.906.785h-1.44a.91.91,0,0,0-.906.786l-.936,6.541a.91.91,0,0,1-.906.786H46.99a.916.916,0,0,1-.906-1.045l.862-6.023a.916.916,0,0,0-.907-1.046h-.917a.915.915,0,0,1-.906-1.045l.014-.1a.911.911,0,0,1,.907-.786H51.6a.915.915,0,0,1,.906,1.045Zm-9.186,0-.013.1a.911.911,0,0,1-.907.785h-1.44a.912.912,0,0,0-.907.786l-.935,6.541a.912.912,0,0,1-.907.786H37.8a.917.917,0,0,1-.907-1.045l.862-6.023a.915.915,0,0,0-.907-1.046h-.916a.916.916,0,0,1-.907-1.045l.014-.1a.911.911,0,0,1,.907-.786h6.466a.915.915,0,0,1,.906,1.045Zm-13.44,3.386c-.05.1-.1.2-.156.3a.915.915,0,0,0,.812,1.339h.224a.915.915,0,0,0,.894-1.114c-.009-.044-.02-.088-.03-.132s-.027-.116-.037-.172a.916.916,0,0,0-1.706-.222Zm2.588,4.872c-.022-.111-.045-.222-.069-.334l-.077-.372a.909.909,0,0,0-.9-.729H28.837a.9.9,0,0,0-.82.512c-.1.2-.194.392-.293.59s-.181.368-.266.549a.9.9,0,0,1-.828.523h-.286a.916.916,0,0,1-.819-1.324q.44-.878.846-1.675.7-1.376,1.362-2.594t1.287-2.31c.331-.577.669-1.146,1.013-1.7a.891.891,0,0,1,.779-.435H31.8a.9.9,0,0,1,.873.638q.233.737.458,1.5.321,1.094.632,2.31t.621,2.594q.2.9.414,1.894a.916.916,0,0,1-.9,1.1H33.37a.908.908,0,0,1-.9-.737Zm-15.107-8.7c.064.177.131.371.2.578.16.468.323.976.492,1.521.119.385.236.776.35,1.173a.915.915,0,0,0,1.675.2c.266-.465.533-.924.8-1.374q.486-.818.927-1.521c.179-.283.343-.541.495-.769a.887.887,0,0,1,.763-.412h.646a.917.917,0,0,1,.915.935c-.008.41-.023.845-.043,1.3q-.054,1.238-.151,2.579t-.21,2.688q-.075.885-.149,1.7a.914.914,0,0,1-.912.833H22.82a.914.914,0,0,1-.91-1.014q.078-.722.159-1.5a.916.916,0,0,0-1.706-.547l-.362.634c-.144.249-.275.48-.394.689a.9.9,0,0,1-.8.462h-.355a.9.9,0,0,1-.88-.665q-.065-.229-.14-.487c-.059-.2-.118-.414-.179-.627a.915.915,0,0,0-1.781.083q-.215,1.167-.4,2.213a.909.909,0,0,1-.9.756h-.322a.914.914,0,0,1-.9-1.092q.137-.7.288-1.443.272-1.347.559-2.688t.586-2.579c.135-.558.269-1.077.4-1.562a.905.905,0,0,1,.883-.677H16.5a.9.9,0,0,1,.862.6Zm-7.16,3.211H11.46a.916.916,0,0,1,.518,1.671,1.761,1.761,0,0,1-1.026.286H9.7a.915.915,0,0,1-.519-1.67,1.763,1.763,0,0,1,1.025-.286Zm-14.064,5.934.083-2.2c.044-.455.088-.917.134-1.386s.09-.937.135-1.4q.195-2.035.457-3.6a24.3,24.3,0,0,1,.744-3.135,3.064,3.064,0,0,1,.342-.758.588.588,0,0,1,.512-.222H1.69a5.007,5.007,0,0,1,4.094,2.423,9.848,9.848,0,0,1,1.588,6.935,7.6,7.6,0,0,1-1.557,4.27,5.19,5.19,0,0,1-4.2,1.758H-3.322q-.387,0-.523-.713a7.369,7.369,0,0,1-.014-1.969Zm8.281-3.995a9.882,9.882,0,0,0-.2-3.475,4.639,4.639,0,0,0-1.619-2.589,1.788,1.788,0,0,0-1.085-.445,1.167,1.167,0,0,0-.829.352,2.594,2.594,0,0,0-.6.951,7.987,7.987,0,0,0-.378,1.351q-.145.748-.238,1.71c-.021.222-.056.585-.105,1.091s-.087.9-.114,1.184A6.812,6.812,0,0,0-.5,1509.1a1.576,1.576,0,0,0,1.561,1.11,2.794,2.794,0,0,0,2.451-1.461,6.449,6.449,0,0,0,.908-2.866Z" transform="translate(1252.565 -881.71)" fill="#0f1b2f"/>
    <g id="Group_272" data-name="Group 272" transform="translate(1245.89 647.941)">
      <g id="Group_240" data-name="Group 240" transform="translate(0 0)">
        <g id="Group_238" data-name="Group 238" transform="translate(0 29.084)">
          <text id="LAT_GWARANCJI" data-name="LAT
GWARANCJI" transform="translate(30 11.595)" fill="#0f1b2f" font-size="9" font-family="SegoeUI, Segoe UI"><tspan x="-7.187" y="0">LAT</tspan><tspan x="-24.48" y="10">GWARANCJI</tspan></text>
          <g id="Group_237" data-name="Group 237" transform="translate(20.123 0)">
            <path id="Path_352" data-name="Path 352" d="M321.092,1213.55H343.3v.468h-22.21v-.468Z" transform="translate(-321.092 -1213.55)" fill="#0f1b2f" fill-rule="evenodd"/>
          </g>
        </g>
        <text id="_40" data-name="40" transform="translate(28.993 20)" fill="#0f1b2f" font-size="21" font-family="MuseoSans-100, 'Museo Sans \31 00'" font-weight="100"><tspan x="-12.705" y="0">40</tspan></text>
      </g>
    </g>
    <text id="do" transform="translate(1256.903 677.943)" fill="#42454a" font-size="9" font-family="MuseoSans-300, 'Museo Sans \33 00'" font-weight="300"><tspan x="-5.449" y="0">do</tspan></text>
  </g>
</svg>
