<svg xmlns="http://www.w3.org/2000/svg" width="39.781" height="39.814" viewBox="0 0 39.781 39.814">
  <path id="Path_434" data-name="Path 434" d="M79.833,59.21l-3.122-3.949.48-5.012a.738.738,0,0,0-.458-.738L72.053,47.6l-2.1-4.576a.738.738,0,0,0-.775-.421L64.2,43.34l-4.1-2.952a.738.738,0,0,0-.886,0l-3.949,3.2-5.012-.48a.738.738,0,0,0-.738.465L47.6,48.242l-4.576,2.1a.738.738,0,0,0-.421.775L43.34,56.1l-2.952,4.1a.738.738,0,0,0,0,.886l3.122,3.949-.48,5.012a.738.738,0,0,0,.458.738L48.242,72.7l2.1,4.576a.738.738,0,0,0,.775.421l4.982-.738,4.1,2.952a.738.738,0,0,0,.886,0l3.949-3.122,5.012.48a.738.738,0,0,0,.738-.458L72.7,72.053l4.576-2.1a.738.738,0,0,0,.421-.775L76.955,64.2l2.952-4.1a.738.738,0,0,0-.074-.886ZM67,70.06a.369.369,0,0,1-.305.423.374.374,0,0,1-.056,0,.362.362,0,0,1-.17-.044L60.147,67.13l-6.311,3.351a.369.369,0,0,1-.539-.391l1.2-7.027-5.108-4.975a.369.369,0,0,1,.207-.627l7.056-1.026,3.159-6.392a.384.384,0,0,1,.664,0l3.159,6.392L70.7,57.461a.369.369,0,0,1,.207.627l-5.108,4.975Z" transform="translate(-40.24 -40.24)" fill="#fff"/>
</svg>
