<svg xmlns="http://www.w3.org/2000/svg" width="104.343" height="85.157" viewBox="0 0 104.343 85.157">
  <g id="Group_638" data-name="Group 638" transform="translate(-1350.045 -615.464)">
    <g id="Group_106" data-name="Group 106" transform="translate(1350.045 615.463)">
      <g id="Group_90" data-name="Group 90" transform="translate(29.477 18.235)">
        <path id="Path_248" data-name="Path 248" d="M-548.61,1871.329a1.859,1.859,0,0,1,1.149.39l-.188.37a1.47,1.47,0,0,0-.973-.351c-.877,0-1.461.74-1.461,1.935,0,1.227.636,1.96,1.422,1.96a1.158,1.158,0,0,0,.987-.48v-.967h-.584v-.4h.987v2.182h-.37v-.2a1.6,1.6,0,0,1,.013-.182h-.013a1.405,1.405,0,0,1-1.071.461c-.967,0-1.818-.883-1.818-2.363C-550.532,1872.238-549.753,1871.329-548.61,1871.329Z" transform="translate(550.532 -1871.329)" fill="#0f1b2f"/>
        <path id="Path_249" data-name="Path 249" d="M-542.013,1874.223h.416v.5a2.372,2.372,0,0,1-.013.253h.013c.11-.429.435-.785.792-.785a.478.478,0,0,1,.137.019v.429a.624.624,0,0,0-.137-.013c-.552,0-.785.837-.785,1.448v1.416h-.422Z" transform="translate(546.013 -1872.847)" fill="#0f1b2f"/>
        <path id="Path_250" data-name="Path 250" d="M-537.3,1874.095c.786,0,1.084.714,1.084,1.454,0,.084-.007.169-.013.273h-1.883c.013.882.416,1.305.922,1.305a1.094,1.094,0,0,0,.792-.338l.124.344a1.366,1.366,0,0,1-.954.383c-.825,0-1.318-.7-1.318-1.74C-538.542,1874.757-538.055,1874.095-537.3,1874.095Zm.656,1.382c-.007-.694-.24-1.013-.662-1.013s-.727.357-.805,1.013Z" transform="translate(544.172 -1872.796)" fill="#0f1b2f"/>
        <path id="Path_251" data-name="Path 251" d="M-531.253,1874.095c.786,0,1.084.714,1.084,1.454,0,.084-.007.169-.013.273h-1.883c.013.882.416,1.305.922,1.305a1.094,1.094,0,0,0,.792-.338l.123.344a1.366,1.366,0,0,1-.954.383c-.825,0-1.318-.7-1.318-1.74C-532.5,1874.757-532.012,1874.095-531.253,1874.095Zm.656,1.382c-.007-.694-.24-1.013-.662-1.013s-.727.357-.805,1.013Z" transform="translate(540.967 -1872.796)" fill="#0f1b2f"/>
        <path id="Path_252" data-name="Path 252" d="M-526.11,1874.172h.415v.331a1,1,0,0,1-.019.2h.013a1.047,1.047,0,0,1,.993-.61c.6,0,.844.4.844,1.039v2.3h-.428v-2.214c0-.357-.059-.727-.513-.727a.97.97,0,0,0-.882,1.026v1.915h-.422Z" transform="translate(537.578 -1872.796)" fill="#0f1b2f"/>
        <path id="Path_253" data-name="Path 253" d="M-517.96,1871.329a1.658,1.658,0,0,1,1.078.37l-.188.377a1.408,1.408,0,0,0-.9-.338c-.928,0-1.474.831-1.474,1.915s.558,1.987,1.461,1.987a1.625,1.625,0,0,0,1.006-.37l.169.37a1.817,1.817,0,0,1-1.188.409c-1.182,0-1.9-1.045-1.9-2.382S-519.167,1871.329-517.96,1871.329Z" transform="translate(534.278 -1871.329)" fill="#0f1b2f"/>
        <path id="Path_254" data-name="Path 254" d="M-511.18,1874.095c.811,0,1.344.727,1.344,1.7s-.533,1.72-1.35,1.72-1.344-.74-1.344-1.72S-511.991,1874.095-511.18,1874.095Zm-.006,3.038c.571,0,.915-.571.915-1.344s-.344-1.311-.915-1.311-.909.545-.909,1.311S-511.751,1877.133-511.186,1877.133Z" transform="translate(530.375 -1872.796)" fill="#0f1b2f"/>
        <path id="Path_255" data-name="Path 255" d="M-504.343,1875.432h.169v-.1c0-.668-.234-.863-.591-.863a1.373,1.373,0,0,0-.733.239l-.13-.338a1.542,1.542,0,0,1,.889-.278c.662,0,.987.416.987,1.253v2.09h-.389v-.286a2.764,2.764,0,0,1,.013-.279h-.013a.949.949,0,0,1-.837.616.856.856,0,0,1-.844-.96C-505.823,1875.5-504.843,1875.432-504.343,1875.432Zm-.558,1.695c.487,0,.727-.637.727-1.085v-.272h-.162c-.376,0-1.078.032-1.078.727A.562.562,0,0,0-504.9,1877.127Z" transform="translate(526.817 -1872.796)" fill="#0f1b2f"/>
        <path id="Path_256" data-name="Path 256" d="M-499.905,1873.637h-.331v-.371h.337v-.928h.416v.928h.617v.371h-.617v1.642c0,.76.338.863.552.863a.346.346,0,0,0,.11-.013v.389a.773.773,0,0,1-.162.014c-.312,0-.922-.124-.922-1.214Z" transform="translate(523.854 -1871.865)" fill="#0f1b2f"/>
        <path id="Path_257" data-name="Path 257" d="M-493.17,1871.5h1.11a1.275,1.275,0,0,1,1.3,1.382,1.283,1.283,0,0,1-1.3,1.389h-.675v1.792h-.435Zm1.051,2.382a.9.9,0,0,0,.909-1,.893.893,0,0,0-.909-.993h-.617v1.993Z" transform="translate(520.106 -1871.417)" fill="#0f1b2f"/>
        <path id="Path_258" data-name="Path 258" d="M-486.837,1874.26h.422v2.208c0,.363.058.733.519.733a.967.967,0,0,0,.857-1.018v-1.922h.422v3.266h-.416v-.331a1.09,1.09,0,0,1,.02-.208h-.013a1.022,1.022,0,0,1-.967.617c-.61,0-.844-.409-.844-1.039Z" transform="translate(516.747 -1872.884)" fill="#0f1b2f"/>
        <path id="Path_259" data-name="Path 259" d="M-480.31,1874.223h.416v.5a2.377,2.377,0,0,1-.013.253h.013c.11-.429.435-.785.792-.785a.477.477,0,0,1,.137.019v.429a.621.621,0,0,0-.137-.013c-.552,0-.785.837-.785,1.448v1.416h-.422Z" transform="translate(513.285 -1872.847)" fill="#0f1b2f"/>
        <path id="Path_260" data-name="Path 260" d="M-475.331,1875.432h.169v-.1c0-.668-.233-.863-.591-.863a1.375,1.375,0,0,0-.733.239l-.13-.338a1.54,1.54,0,0,1,.889-.278c.662,0,.987.416.987,1.253v2.09h-.389v-.286c0-.162.013-.279.013-.279h-.013a.951.951,0,0,1-.838.616.856.856,0,0,1-.844-.96C-476.811,1875.5-475.831,1875.432-475.331,1875.432Zm-.558,1.695c.486,0,.727-.637.727-1.085v-.272h-.162c-.376,0-1.077.032-1.077.727A.561.561,0,0,0-475.889,1877.127Z" transform="translate(511.429 -1872.796)" fill="#0f1b2f"/>
        <path id="Path_261" data-name="Path 261" d="M-470.658,1871.5h.429v3.693c0,.442.13.506.279.506a.358.358,0,0,0,.085-.006v.383a.759.759,0,0,1-.149.014c-.247,0-.643-.085-.643-.8Z" transform="translate(508.165 -1871.417)" fill="#0f1b2f"/>
        <path id="Path_262" data-name="Path 262" d="M-464.85,1871.5h1.084a1.082,1.082,0,0,1,1.149,1.143,1.128,1.128,0,0,1-.533,1v.013a1.141,1.141,0,0,1,.675,1.149,1.18,1.18,0,0,1-1.324,1.259h-1.052Zm1.162,1.98c.338,0,.623-.318.623-.805a.707.707,0,0,0-.721-.785h-.629v1.591Zm-.13,2.188a.791.791,0,0,0,.9-.876c0-.591-.324-.928-.72-.928h-.772v1.8Z" transform="translate(505.085 -1871.417)" fill="#0f1b2f"/>
        <path id="Path_263" data-name="Path 263" d="M-458.222,1871.885h-1.234v-.389h2.9v.389h-1.24v4.174h-.428Z" transform="translate(502.224 -1871.417)" fill="#0f1b2f"/>
      </g>
      <g id="Group_105" data-name="Group 105" transform="translate(0 0)">
        <g id="Group_92" data-name="Group 92" transform="translate(59.944 6.475)">
          <g id="Group_91" data-name="Group 91">
            <path id="Path_264" data-name="Path 264" d="M-484.209,1846.284h1.268a.915.915,0,0,1,.885.652.914.914,0,0,1-.36,1.038,1.786,1.786,0,0,1-1.038.289h-1.269a.914.914,0,0,1-.884-.651.915.915,0,0,1,.36-1.038,1.785,1.785,0,0,1,1.038-.289Z" transform="translate(485.65 -1846.284)" fill="#0f1b2f"/>
          </g>
        </g>
        <g id="Group_98" data-name="Group 98" transform="translate(64.028 2.73)">
          <g id="Group_93" data-name="Group 93">
            <path id="Path_265" data-name="Path 265" d="M-473.528,1846.518a3.282,3.282,0,0,0,.772-.077,1.683,1.683,0,0,0,.517-.208.907.907,0,0,0,.306-.313,1.269,1.269,0,0,0,.141-.4.777.777,0,0,0-.307-.786,5.226,5.226,0,0,0-1.412-.675,9.212,9.212,0,0,1-.879-.383,2.72,2.72,0,0,1-.753-.542,2.044,2.044,0,0,1-.473-.793,2.333,2.333,0,0,1-.036-1.134,3.233,3.233,0,0,1,.463-1.2,3.323,3.323,0,0,1,.87-.911,4.022,4.022,0,0,1,1.215-.578,5.381,5.381,0,0,1,1.511-.2,5.612,5.612,0,0,1,1.647.208q.271.084.5.175a.583.583,0,0,1,.3.821l-.372.686a.585.585,0,0,1-.746.254q-.168-.071-.352-.134a3.62,3.62,0,0,0-1.161-.16,2.41,2.41,0,0,0-1.158.216.9.9,0,0,0-.457.661.694.694,0,0,0,.046.445.946.946,0,0,0,.3.327,2.489,2.489,0,0,0,.482.264q.278.119.618.244a11.912,11.912,0,0,1,1.211.55,2.71,2.71,0,0,1,.813.633,1.842,1.842,0,0,1,.4.849,3.288,3.288,0,0,1-.028,1.182,3.088,3.088,0,0,1-1.315,2.094,5.184,5.184,0,0,1-2.984.745,7.612,7.612,0,0,1-1.142-.076,6.607,6.607,0,0,1-.878-.188,4.265,4.265,0,0,1-.64-.237,4.185,4.185,0,0,1-.439-.236l.651-1.225a.575.575,0,0,1,.727-.268q.24.1.528.192A5.169,5.169,0,0,0-473.528,1846.518Z" transform="translate(476.953 -1838.309)" fill="#0f1b2f"/>
          </g>
          <g id="Group_94" data-name="Group 94" transform="translate(8.011 0.222)">
            <path id="Path_266" data-name="Path 266" d="M-452.334,1848.425a.584.584,0,0,1-.576-.495q-.042-.265-.089-.537t-.1-.573a.581.581,0,0,0-.573-.482h-2.924a.58.58,0,0,0-.516.312q-.2.372-.39.745t-.364.71a.578.578,0,0,1-.518.319h-.929a.583.583,0,0,1-.513-.857q.569-1.072,1.088-2.023.721-1.322,1.4-2.491t1.313-2.219q.555-.913,1.131-1.79a.584.584,0,0,1,.489-.263h1.3a.582.582,0,0,1,.561.417q.232.8.452,1.635.276,1.05.538,2.219t.518,2.491q.2,1.026.407,2.2a.583.583,0,0,1-.573.684Zm-1.793-7.458c-.073.14-.178.331-.314.571s-.291.52-.466.836-.37.664-.584,1.044l-.183.326a.584.584,0,0,0,.507.869h1.078a.583.583,0,0,0,.572-.689q-.047-.26-.094-.51-.107-.571-.21-1.045t-.18-.835Q-454.077,1841.172-454.127,1840.967Z" transform="translate(459.894 -1838.782)" fill="#0f1b2f"/>
          </g>
          <g id="Group_95" data-name="Group 95" transform="translate(18.143 0.222)">
            <path id="Path_267" data-name="Path 267" d="M-430.235,1839.465l-.121.687a.582.582,0,0,1-.573.481h-1.931a.582.582,0,0,0-.573.481l-1.2,6.83a.582.582,0,0,1-.573.481h-.989a.582.582,0,0,1-.573-.683l1.133-6.426a.582.582,0,0,0-.573-.683h-1.521a.582.582,0,0,1-.573-.683l.121-.687a.582.582,0,0,1,.573-.481h6.805A.582.582,0,0,1-430.235,1839.465Z" transform="translate(438.316 -1838.782)" fill="#0f1b2f"/>
          </g>
          <g id="Group_96" data-name="Group 96" transform="translate(26.148 0.222)">
            <path id="Path_268" data-name="Path 268" d="M-419.193,1838.782h.989a.582.582,0,0,1,.573.683l-1.5,8.479a.582.582,0,0,1-.573.481h-.988a.582.582,0,0,1-.573-.683l1.5-8.479A.582.582,0,0,1-419.193,1838.782Z" transform="translate(421.27 -1838.782)" fill="#0f1b2f"/>
          </g>
          <g id="Group_97" data-name="Group 97" transform="translate(30.545 0.222)">
            <path id="Path_269" data-name="Path 269" d="M-405.155,1848.425a.576.576,0,0,1-.536-.364q-.585-1.47-1.3-2.906-.453-.912-.961-1.768a.584.584,0,0,0-1.073.2l-.768,4.355a.582.582,0,0,1-.573.481h-.961a.582.582,0,0,1-.573-.683l1.5-8.479a.582.582,0,0,1,.573-.481h1a.572.572,0,0,1,.456.219q.3.391.642.908.439.668.883,1.426t.871,1.572l.008.017a.582.582,0,0,0,1.09-.167l.616-3.494a.583.583,0,0,1,.573-.481h.975a.582.582,0,0,1,.573.683l-1.495,8.479a.583.583,0,0,1-.573.481Z" transform="translate(411.906 -1838.782)" fill="#0f1b2f"/>
          </g>
        </g>
        <g id="Group_104" data-name="Group 104">
          <g id="Group_99" data-name="Group 99" transform="translate(0 0.176)">
            <path id="Path_270" data-name="Path 270" d="M-610.023,1832.871h1.562a.92.92,0,0,1,.906,1.079l-2.362,13.4a.92.92,0,0,1-.906.76h-1.562a.92.92,0,0,1-.906-1.08l2.362-13.4A.92.92,0,0,1-610.023,1832.871Z" transform="translate(613.305 -1832.871)" fill="#0f1b2f"/>
          </g>
          <g id="Group_100" data-name="Group 100" transform="translate(6.951)">
            <path id="Path_271" data-name="Path 271" d="M-583.993,1840.278a10.151,10.151,0,0,1-1.224,3.451,8.245,8.245,0,0,1-2.178,2.44,9.2,9.2,0,0,1-3.015,1.451,13.731,13.731,0,0,1-3.735.483q-.923,0-2.141-.077-.724-.046-1.421-.149a.926.926,0,0,1-.781-1.075l2.343-13.287a.916.916,0,0,1,.761-.751q.919-.134,1.879-.192,1.3-.077,2.223-.077a12.519,12.519,0,0,1,3.473.439,5.863,5.863,0,0,1,2.493,1.385,4.878,4.878,0,0,1,1.332,2.418A8.749,8.749,0,0,1-583.993,1840.278Zm-10.767,4.836q.238.023.555.033t.756.011a5.9,5.9,0,0,0,4.043-1.3,5.983,5.983,0,0,0,1.874-3.583,4.467,4.467,0,0,0-.547-3.627q-.971-1.231-3.542-1.231-.352,0-.727.011c-.251.008-.488.026-.713.055Z" transform="translate(598.502 -1832.496)" fill="#0f1b2f"/>
          </g>
          <g id="Group_101" data-name="Group 101" transform="translate(23.149 0.176)">
            <path id="Path_272" data-name="Path 272" d="M-563.994,1847.026l2.362-13.4a.919.919,0,0,1,.905-.76h8.42a.92.92,0,0,1,.906,1.079l-.184,1.041a.92.92,0,0,1-.905.76h-5.316a.92.92,0,0,0-.906.76l-.2,1.151a.92.92,0,0,0,.906,1.079h3.9a.919.919,0,0,1,.905,1.079l-.172.975a.919.919,0,0,1-.905.76h-4.547a.919.919,0,0,0-.905.76l-.323,1.832a.92.92,0,0,0,.905,1.079h5.173a.919.919,0,0,1,.906,1.079l-.184,1.041a.92.92,0,0,1-.906.76h-8.926A.92.92,0,0,1-563.994,1847.026Z" transform="translate(564.008 -1832.871)" fill="#0f1b2f"/>
          </g>
          <g id="Group_102" data-name="Group 102" transform="translate(35.362 0.176)">
            <path id="Path_273" data-name="Path 273" d="M-526.057,1848.105a.922.922,0,0,1-.909-.781q-.066-.419-.141-.85-.079-.454-.157-.906a.917.917,0,0,0-.906-.761h-4.619a.918.918,0,0,0-.815.493l-.616,1.178q-.3.572-.575,1.122a.914.914,0,0,1-.819.5h-1.468a.921.921,0,0,1-.81-1.354q.9-1.695,1.719-3.2,1.14-2.088,2.2-3.935t2.074-3.506q.878-1.443,1.787-2.828a.923.923,0,0,1,.773-.415h2.06a.918.918,0,0,1,.885.659q.368,1.268.714,2.583.435,1.659.85,3.506t.819,3.935q.314,1.623.642,3.47a.921.921,0,0,1-.906,1.081Zm-2.833-11.783q-.173.331-.495.9t-.736,1.32q-.414.749-.922,1.649-.144.254-.289.515a.923.923,0,0,0,.8,1.373h1.7a.921.921,0,0,0,.9-1.088q-.075-.411-.148-.806-.169-.9-.332-1.651t-.285-1.32C-528.77,1836.836-528.837,1836.539-528.89,1836.322Z" transform="translate(538.001 -1832.871)" fill="#0f1b2f"/>
          </g>
          <g id="Group_103" data-name="Group 103" transform="translate(52.32 0.176)">
            <path id="Path_274" data-name="Path 274" d="M-491.555,1846.239l-.195,1.106a.92.92,0,0,1-.906.76h-8.311a.92.92,0,0,1-.906-1.08l2.362-13.4a.919.919,0,0,1,.906-.76h1.562a.919.919,0,0,1,.905,1.079l-1.786,10.13a.92.92,0,0,0,.906,1.079h4.557A.92.92,0,0,1-491.555,1846.239Z" transform="translate(501.886 -1832.871)" fill="#0f1b2f"/>
          </g>
        </g>
      </g>
    </g>
    <g id="Group_241" data-name="Group 241" transform="translate(1368.581 647.941)">
      <g id="Group_238" data-name="Group 238" transform="translate(0 29.084)">
        <text id="LAT_GWARANCJI" data-name="LAT
GWARANCJI" transform="translate(30 11.595)" fill="#0f1b2f" font-size="9" font-family="SegoeUI, Segoe UI"><tspan x="-7.187" y="0">LAT</tspan><tspan x="-24.48" y="10">GWARANCJI</tspan></text>
        <g id="Group_237" data-name="Group 237" transform="translate(20.123 0)">
          <path id="Path_352" data-name="Path 352" d="M321.092,1213.55H343.3v.468h-22.21v-.468Z" transform="translate(-321.092 -1213.55)" fill="#0f1b2f" fill-rule="evenodd"/>
        </g>
      </g>
      <text id="_55" data-name="55" transform="translate(28.993 19)" fill="#0f1b2f" font-size="20" font-family="MuseoSans-100, 'Museo Sans \31 00'" font-weight="100"><tspan x="-11.08" y="0">55</tspan></text>
    </g>
    <text id="do" transform="translate(1378.393 677.943)" fill="#42454a" font-size="9" font-family="MuseoSans-300, 'Museo Sans \33 00'" font-weight="300"><tspan x="-5.449" y="0">do</tspan></text>
  </g>
</svg>
