<svg xmlns="http://www.w3.org/2000/svg" width="102.421" height="85.82" viewBox="0 0 102.421 85.82">
  <g id="Group_639" data-name="Group 639" transform="translate(-1511.544 -615.464)">
    <g id="Group_118" data-name="Group 118" transform="translate(1511.544 615.463)">
      <g id="Group_107" data-name="Group 107" transform="translate(22.617 17.805)">
        <path id="Path_275" data-name="Path 275" d="M26.539,1757.7a1.816,1.816,0,0,1,1.122.381l-.184.361a1.437,1.437,0,0,0-.952-.343c-.856,0-1.427.723-1.427,1.89,0,1.2.622,1.916,1.389,1.916a1.131,1.131,0,0,0,.964-.47v-.945h-.571v-.387h.964v2.131h-.362v-.2a1.56,1.56,0,0,1,.013-.177h-.013a1.373,1.373,0,0,1-1.046.45c-.945,0-1.776-.862-1.776-2.309C24.661,1758.588,25.423,1757.7,26.539,1757.7Z" transform="translate(-24.661 -1757.7)" fill="#0f1b2f"/>
        <path id="Path_276" data-name="Path 276" d="M33.18,1760.593h.406v.489a2.32,2.32,0,0,1-.013.248h.013c.108-.419.425-.767.773-.767a.469.469,0,0,1,.134.019V1761a.618.618,0,0,0-.134-.012c-.539,0-.767.818-.767,1.415v1.382H33.18Z" transform="translate(-29.272 -1759.249)" fill="#0f1b2f"/>
        <path id="Path_277" data-name="Path 277" d="M37.869,1760.465c.768,0,1.06.7,1.06,1.421,0,.083-.007.165-.013.266h-1.84c.013.862.406,1.275.9,1.275a1.067,1.067,0,0,0,.773-.33l.121.336a1.337,1.337,0,0,1-.932.374c-.806,0-1.288-.685-1.288-1.7C36.651,1761.112,37.127,1760.465,37.869,1760.465Zm.641,1.351c-.006-.679-.235-.99-.647-.99s-.711.349-.787.99Z" transform="translate(-31.15 -1759.196)" fill="#0f1b2f"/>
        <path id="Path_278" data-name="Path 278" d="M43.912,1760.465c.768,0,1.059.7,1.059,1.421,0,.083-.006.165-.012.266h-1.84c.013.862.406,1.275.9,1.275a1.067,1.067,0,0,0,.773-.33l.121.336a1.337,1.337,0,0,1-.932.374c-.806,0-1.288-.685-1.288-1.7C42.694,1761.112,43.17,1760.465,43.912,1760.465Zm.641,1.351c-.006-.679-.235-.99-.647-.99s-.711.349-.787.99Z" transform="translate(-34.421 -1759.196)" fill="#0f1b2f"/>
        <path id="Path_279" data-name="Path 279" d="M49.083,1760.541h.406v.323a.956.956,0,0,1-.019.2h.013a1.024,1.024,0,0,1,.97-.6c.59,0,.824.393.824,1.015v2.251h-.418v-2.162c0-.349-.057-.711-.5-.711a.948.948,0,0,0-.863,1v1.871h-.412Z" transform="translate(-37.879 -1759.196)" fill="#0f1b2f"/>
        <path id="Path_280" data-name="Path 280" d="M57.189,1757.7a1.621,1.621,0,0,1,1.053.362l-.184.368a1.374,1.374,0,0,0-.875-.33c-.907,0-1.44.812-1.44,1.871s.545,1.941,1.427,1.941a1.586,1.586,0,0,0,.983-.362l.165.362a1.775,1.775,0,0,1-1.16.4c-1.155,0-1.853-1.021-1.853-2.328S56.009,1757.7,57.189,1757.7Z" transform="translate(-41.246 -1757.7)" fill="#0f1b2f"/>
        <path id="Path_281" data-name="Path 281" d="M63.982,1760.465c.793,0,1.313.71,1.313,1.661s-.52,1.681-1.319,1.681-1.313-.723-1.313-1.681S63.189,1760.465,63.982,1760.465Zm-.006,2.968c.558,0,.894-.558.894-1.313s-.336-1.281-.894-1.281-.888.533-.888,1.281S63.424,1763.433,63.976,1763.433Z" transform="translate(-45.229 -1759.196)" fill="#0f1b2f"/>
        <path id="Path_282" data-name="Path 282" d="M70.816,1761.771h.165v-.1c0-.653-.228-.843-.577-.843a1.341,1.341,0,0,0-.717.234l-.127-.33a1.505,1.505,0,0,1,.869-.273c.647,0,.964.406.964,1.224v2.042h-.381v-.279a2.707,2.707,0,0,1,.013-.273h-.013a.928.928,0,0,1-.818.6.836.836,0,0,1-.824-.938C69.37,1761.841,70.327,1761.771,70.816,1761.771Zm-.545,1.656c.476,0,.71-.622.71-1.059v-.266h-.159c-.367,0-1.053.031-1.053.71A.548.548,0,0,0,70.271,1763.427Z" transform="translate(-48.858 -1759.196)" fill="#0f1b2f"/>
        <path id="Path_283" data-name="Path 283" d="M75.28,1759.977h-.323v-.361h.33v-.907h.406v.907h.6v.361h-.6v1.6c0,.742.33.844.539.844a.337.337,0,0,0,.108-.012v.38a.787.787,0,0,1-.158.013c-.3,0-.9-.121-.9-1.187Z" transform="translate(-51.882 -1758.246)" fill="#0f1b2f"/>
        <path id="Path_284" data-name="Path 284" d="M82.023,1757.866h1.084a1.357,1.357,0,0,1,0,2.708h-.659v1.75h-.425Zm1.027,2.327a.977.977,0,0,0,0-1.947h-.6v1.947Z" transform="translate(-55.707 -1757.79)" fill="#0f1b2f"/>
        <path id="Path_285" data-name="Path 285" d="M88.356,1760.63h.412v2.157c0,.355.057.716.507.716a.945.945,0,0,0,.837-1v-1.878h.412v3.19h-.406v-.323a1.062,1.062,0,0,1,.019-.2h-.013a1,1,0,0,1-.945.6c-.6,0-.825-.4-.825-1.015Z" transform="translate(-59.134 -1759.286)" fill="#0f1b2f"/>
        <path id="Path_286" data-name="Path 286" d="M94.883,1760.593h.406v.489a2.319,2.319,0,0,1-.013.248h.013c.108-.419.425-.767.773-.767a.469.469,0,0,1,.134.019V1761a.618.618,0,0,0-.134-.012c-.539,0-.767.818-.767,1.415v1.382h-.412Z" transform="translate(-62.667 -1759.249)" fill="#0f1b2f"/>
        <path id="Path_287" data-name="Path 287" d="M99.828,1761.771h.165v-.1c0-.653-.228-.843-.577-.843a1.341,1.341,0,0,0-.717.234l-.127-.33a1.5,1.5,0,0,1,.869-.273c.647,0,.964.406.964,1.224v2.042h-.38v-.279c0-.159.012-.273.012-.273h-.012a.929.929,0,0,1-.818.6.836.836,0,0,1-.824-.938C98.382,1761.841,99.339,1761.771,99.828,1761.771Zm-.545,1.656c.476,0,.71-.622.71-1.059v-.266h-.158c-.368,0-1.053.031-1.053.71A.548.548,0,0,0,99.283,1763.427Z" transform="translate(-64.56 -1759.196)" fill="#0f1b2f"/>
        <path id="Path_288" data-name="Path 288" d="M104.535,1757.866h.419v3.609c0,.431.127.495.273.495a.34.34,0,0,0,.083-.006v.374a.8.8,0,0,1-.146.013c-.241,0-.628-.083-.628-.781Z" transform="translate(-67.891 -1757.79)" fill="#0f1b2f"/>
        <path id="Path_289" data-name="Path 289" d="M110.344,1757.866H111.4a1.056,1.056,0,0,1,1.123,1.116,1.1,1.1,0,0,1-.52.977v.013a1.115,1.115,0,0,1,.659,1.123,1.152,1.152,0,0,1-1.294,1.23h-1.027Zm1.135,1.935c.33,0,.609-.311.609-.787a.691.691,0,0,0-.7-.767h-.615v1.554Zm-.127,2.137a.773.773,0,0,0,.875-.856c0-.577-.317-.907-.7-.907h-.755v1.763Z" transform="translate(-71.035 -1757.79)" fill="#0f1b2f"/>
        <path id="Path_290" data-name="Path 290" d="M116.942,1758.247h-1.205v-.381h2.835v.381h-1.212v4.078h-.418Z" transform="translate(-73.953 -1757.79)" fill="#0f1b2f"/>
        <path id="Path_291" data-name="Path 291" d="M122.161,1766.437h.431l-.387,1.142h-.343Z" transform="translate(-77.269 -1762.429)" fill="#0f1b2f"/>
        <path id="Path_292" data-name="Path 292" d="M128,1760.541h.406v.323a.98.98,0,0,1-.019.2h.013a.958.958,0,0,1,.913-.6.688.688,0,0,1,.717.6h.019a.981.981,0,0,1,.926-.6c.545,0,.767.393.767,1.015v2.251h-.418v-2.156c0-.355-.063-.717-.463-.717a.894.894,0,0,0-.787.977v1.9h-.412v-2.156c0-.362-.07-.717-.463-.717a.905.905,0,0,0-.786,1v1.877H128Z" transform="translate(-80.592 -1759.196)" fill="#0f1b2f"/>
        <path id="Path_293" data-name="Path 293" d="M138.88,1761.771h.165v-.1c0-.653-.228-.843-.577-.843a1.341,1.341,0,0,0-.717.234l-.127-.33a1.5,1.5,0,0,1,.869-.273c.647,0,.964.406.964,1.224v2.042h-.38v-.279c0-.159.012-.273.012-.273h-.012a.929.929,0,0,1-.818.6.836.836,0,0,1-.824-.938C137.434,1761.841,138.392,1761.771,138.88,1761.771Zm-.545,1.656c.476,0,.711-.622.711-1.059v-.266h-.159c-.368,0-1.053.031-1.053.71A.548.548,0,0,0,138.335,1763.427Z" transform="translate(-85.696 -1759.196)" fill="#0f1b2f"/>
        <path id="Path_294" data-name="Path 294" d="M143.344,1759.977h-.323v-.361h.33v-.907h.406v.907h.6v.361h-.6v1.6c0,.742.33.844.539.844a.339.339,0,0,0,.108-.012v.38a.8.8,0,0,1-.159.013c-.3,0-.9-.121-.9-1.187Z" transform="translate(-88.72 -1758.246)" fill="#0f1b2f"/>
        <path id="Path_295" data-name="Path 295" d="M146.953,1759.977h-.323v-.361h.33v-.907h.406v.907h.6v.361h-.6v1.6c0,.742.329.844.539.844a.341.341,0,0,0,.108-.012v.38a.8.8,0,0,1-.159.013c-.3,0-.9-.121-.9-1.187Z" transform="translate(-90.673 -1758.246)" fill="#0f1b2f"/>
      </g>
      <g id="Group_117" data-name="Group 117" transform="translate(0 0)">
        <g id="Group_110" data-name="Group 110" transform="translate(59.187 2.545)">
          <g id="Group_108" data-name="Group 108" transform="translate(4.107)">
            <path id="Path_296" data-name="Path 296" d="M151.692,1725.47l-.013.1a.9.9,0,0,1-.9.776h-1.424a.9.9,0,0,0-.9.777l-.924,6.466a.9.9,0,0,1-.9.777h-.406a.9.9,0,0,1-.9-1.033l.852-5.953a.905.905,0,0,0-.9-1.033h-.906a.9.9,0,0,1-.9-1.033l.013-.1a.9.9,0,0,1,.9-.776H150.8a.9.9,0,0,1,.9,1.033Zm-9.08,0-.013.1a.9.9,0,0,1-.9.776h-1.424a.9.9,0,0,0-.9.777l-.925,6.466a.9.9,0,0,1-.9.777h-.406a.905.905,0,0,1-.9-1.033l.851-5.953a.9.9,0,0,0-.9-1.033h-.906a.905.905,0,0,1-.9-1.033l.014-.1a.9.9,0,0,1,.9-.776h6.392a.9.9,0,0,1,.9,1.033Zm-13.285,3.347-.155.3a.9.9,0,0,0,.8,1.323h.222a.906.906,0,0,0,.884-1.1c-.01-.044-.02-.088-.029-.131-.013-.058-.027-.115-.038-.17a.905.905,0,0,0-1.686-.219Zm2.559,4.815q-.032-.163-.067-.33c-.026-.121-.052-.245-.078-.368a.9.9,0,0,0-.886-.72h-2.562a.886.886,0,0,0-.812.506q-.142.292-.288.582t-.264.542a.886.886,0,0,1-.818.517h-.283a.9.9,0,0,1-.809-1.309q.433-.867.835-1.654.7-1.361,1.347-2.564t1.272-2.284q.492-.857,1-1.683a.884.884,0,0,1,.771-.43h.973a.893.893,0,0,1,.862.63q.231.729.454,1.482.317,1.08.625,2.284t.614,2.564q.2.884.409,1.872a.905.905,0,0,1-.886,1.091h-.523a.9.9,0,0,1-.887-.729Zm-14.934-8.6q.1.263.2.571.237.694.486,1.5.177.571.346,1.16a.9.9,0,0,0,1.655.2c.263-.46.527-.914.791-1.358q.481-.809.917-1.5c.177-.281.339-.534.488-.76a.882.882,0,0,1,.756-.407h.637a.906.906,0,0,1,.906.924q-.014.608-.043,1.289-.053,1.225-.15,2.55t-.208,2.656c-.049.583-.1,1.145-.146,1.682a.9.9,0,0,1-.9.823h-.34a.9.9,0,0,1-.9-1q.078-.712.156-1.481a.905.905,0,0,0-1.687-.54c-.121.213-.24.422-.357.626-.142.247-.273.474-.39.682a.885.885,0,0,1-.786.457h-.351a.893.893,0,0,1-.869-.657l-.138-.481c-.058-.2-.117-.408-.177-.619a.905.905,0,0,0-1.761.082q-.213,1.153-.395,2.188a.9.9,0,0,1-.891.747h-.318a.9.9,0,0,1-.888-1.079c.09-.459.186-.934.285-1.427q.269-1.331.552-2.656t.579-2.55q.2-.826.4-1.545a.894.894,0,0,1,.873-.668h.824a.892.892,0,0,1,.851.6Z" transform="translate(-112.575 -1724.437)" fill="#0f1b2f"/>
          </g>
          <g id="Group_109" data-name="Group 109" transform="translate(0 3.77)">
            <path id="Path_297" data-name="Path 297" d="M105.032,1732.655h1.239a.9.9,0,0,1,.513,1.651,1.747,1.747,0,0,1-1.014.282h-1.24a.9.9,0,0,1-.512-1.65,1.742,1.742,0,0,1,1.014-.283Z" transform="translate(-103.624 -1732.655)" fill="#0f1b2f"/>
          </g>
        </g>
        <g id="Group_116" data-name="Group 116">
          <g id="Group_111" data-name="Group 111" transform="translate(0 0.172)">
            <path id="Path_298" data-name="Path 298" d="M-20.678,1719.265h1.526a.9.9,0,0,1,.885,1.054l-2.308,13.087a.9.9,0,0,1-.885.743h-1.526a.9.9,0,0,1-.885-1.055l2.308-13.087A.9.9,0,0,1-20.678,1719.265Z" transform="translate(23.884 -1719.265)" fill="#0f1b2f"/>
          </g>
          <g id="Group_112" data-name="Group 112" transform="translate(6.791)">
            <path id="Path_299" data-name="Path 299" d="M5.094,1726.494a9.922,9.922,0,0,1-1.2,3.372,8.056,8.056,0,0,1-2.128,2.384,9.007,9.007,0,0,1-2.945,1.418,13.41,13.41,0,0,1-3.649.472q-.9,0-2.092-.075-.707-.045-1.389-.146a.9.9,0,0,1-.763-1.05l2.289-12.982a.894.894,0,0,1,.743-.734q.9-.132,1.836-.188,1.27-.074,2.172-.075a12.227,12.227,0,0,1,3.393.429,5.726,5.726,0,0,1,2.436,1.354,4.769,4.769,0,0,1,1.3,2.363A8.546,8.546,0,0,1,5.094,1726.494Zm-10.52,4.724q.233.023.542.033t.739.01a5.763,5.763,0,0,0,3.95-1.267,5.845,5.845,0,0,0,1.831-3.5,4.363,4.363,0,0,0-.535-3.544q-.948-1.2-3.461-1.2-.343,0-.711.011c-.245.008-.477.025-.7.054Z" transform="translate(9.081 -1718.89)" fill="#0f1b2f"/>
          </g>
          <g id="Group_113" data-name="Group 113" transform="translate(22.616 0.172)">
            <path id="Path_300" data-name="Path 300" d="M25.426,1733.094l2.308-13.087a.9.9,0,0,1,.885-.742h8.227a.9.9,0,0,1,.885,1.054l-.179,1.017a.9.9,0,0,1-.885.742H31.472a.9.9,0,0,0-.885.743l-.2,1.124a.9.9,0,0,0,.885,1.055h3.808a.9.9,0,0,1,.885,1.054l-.168.952a.9.9,0,0,1-.885.742H30.473a.9.9,0,0,0-.885.742l-.316,1.79a.9.9,0,0,0,.885,1.055h5.054a.9.9,0,0,1,.885,1.054l-.179,1.017a.9.9,0,0,1-.885.743H26.311A.9.9,0,0,1,25.426,1733.094Z" transform="translate(-25.412 -1719.265)" fill="#0f1b2f"/>
          </g>
          <g id="Group_114" data-name="Group 114" transform="translate(34.548 0.172)">
            <path id="Path_301" data-name="Path 301" d="M63.089,1734.149a.9.9,0,0,1-.888-.763q-.065-.409-.138-.83l-.153-.885a.9.9,0,0,0-.885-.744H56.512a.9.9,0,0,0-.8.482l-.6,1.151q-.292.559-.562,1.1a.893.893,0,0,1-.8.493H52.318a.9.9,0,0,1-.792-1.323q.879-1.656,1.679-3.123,1.114-2.041,2.154-3.845t2.026-3.425q.857-1.409,1.746-2.763a.9.9,0,0,1,.755-.405H61.9a.9.9,0,0,1,.865.644q.36,1.238.7,2.524.425,1.621.831,3.425t.8,3.845q.308,1.585.628,3.39a.9.9,0,0,1-.885,1.056Zm-2.768-11.512q-.169.324-.484.882t-.719,1.29q-.4.732-.9,1.611-.14.247-.282.5a.9.9,0,0,0,.783,1.341h1.664a.9.9,0,0,0,.883-1.063q-.073-.4-.145-.787-.165-.882-.324-1.614t-.278-1.289Q60.4,1722.953,60.321,1722.637Z" transform="translate(-51.42 -1719.265)" fill="#0f1b2f"/>
          </g>
          <g id="Group_115" data-name="Group 115" transform="translate(51.117 0.172)">
            <path id="Path_302" data-name="Path 302" d="M97.629,1732.325l-.191,1.081a.9.9,0,0,1-.885.743h-8.12a.9.9,0,0,1-.885-1.055l2.308-13.087a.9.9,0,0,1,.885-.742h1.526a.9.9,0,0,1,.885,1.054l-1.745,9.9a.9.9,0,0,0,.885,1.054h4.452A.9.9,0,0,1,97.629,1732.325Z" transform="translate(-87.535 -1719.265)" fill="#0f1b2f"/>
          </g>
        </g>
      </g>
    </g>
    <g id="Group_242" data-name="Group 242" transform="translate(1523.07 648.604)">
      <g id="Group_238" data-name="Group 238" transform="translate(7 29.084)">
        <text id="LAT_GWARANCJI" data-name="LAT
GWARANCJI" transform="translate(30 11.595)" fill="#0f1b2f" font-size="9" font-family="SegoeUI, Segoe UI"><tspan x="-7.187" y="0">LAT</tspan><tspan x="-24.48" y="10">GWARANCJI</tspan></text>
        <g id="Group_237" data-name="Group 237" transform="translate(20.123 0)">
          <path id="Path_352" data-name="Path 352" d="M321.092,1213.55H343.3v.468h-22.21v-.468Z" transform="translate(-321.092 -1213.55)" fill="#0f1b2f" fill-rule="evenodd"/>
        </g>
      </g>
      <text id="_55" data-name="55" transform="translate(37 19)" fill="#0f1b2f" font-size="20" font-family="MuseoSans-100, 'Museo Sans \31 00'" font-weight="100"><tspan x="-11.08" y="0">55</tspan></text>
    </g>
    <text id="do" transform="translate(1536.764 682.943)" fill="#42454a" font-size="9" font-family="MuseoSans-300, 'Museo Sans \33 00'" font-weight="300"><tspan x="-5.449" y="0">do</tspan></text>
  </g>
</svg>
