<svg xmlns="http://www.w3.org/2000/svg" xmlns:xlink="http://www.w3.org/1999/xlink" width="60" height="66.333" viewBox="0 0 60 66.333">
  <defs>
    <clipPath id="clip-path">
      <rect id="SVGID" width="60" height="66" transform="translate(0 0.333)" fill="#fff"/>
    </clipPath>
  </defs>
  <g id="Group_609" data-name="Group 609" transform="translate(-1905 229.157)">
    <path id="Path_507" data-name="Path 507" d="M2006.319-32.3V-43.279a9.89,9.89,0,0,0-9.879-9.878h-17.562A9.889,9.889,0,0,0,1969-43.279V-29.01h2.2V-43.279a7.692,7.692,0,0,1,7.683-7.683h1.741l6.264,6.264a1.1,1.1,0,0,0,1.552,0l6.264-6.264h1.741a7.692,7.692,0,0,1,7.683,7.683V-32.3Zm-18.66-14.723-3.936-3.936h7.872Zm0,0" transform="translate(-55.219 -151.853)" fill="#fff"/>
    <rect id="Rectangle_353" data-name="Rectangle 353" width="1" height="11" transform="translate(1923 -193.824)" fill="#fff"/>
    <g id="Group_608" data-name="Group 608" transform="translate(1905 -229.157)">
      <g id="Group_607" data-name="Group 607" transform="translate(0 0)" clip-path="url(#clip-path)">
        <rect id="Rectangle_354" data-name="Rectangle 354" width="2" height="8" transform="translate(36 35.333)" fill="#fff"/>
        <path id="Path_508" data-name="Path 508" d="M1964.27,109.728h-14a16.9,16.9,0,0,0-7.883-2.075c-.083-.008-.17-.011-.247-.011a17,17,0,0,0-8.132,2.072l-8.156.014a4.39,4.39,0,0,0-4.39,4.39,1.783,1.783,0,0,0,.015.26,4.284,4.284,0,0,0,.143.89l-6.188-2.835-.1-.049-3.7-1.688a4.682,4.682,0,0,0-6.639,4.256v.242a4.642,4.642,0,0,0,2.592,4.186l14.192,7.107a7.778,7.778,0,0,0,3.433.8h39.053a1.1,1.1,0,0,0,1.1-1.1V110.826a1.1,1.1,0,0,0-1.1-1.1ZM1948.9,125.095h-23.687a5.6,5.6,0,0,1-2.461-.575l-14.186-7.108a2.462,2.462,0,0,1-1.376-2.217v-.242a2.488,2.488,0,0,1,3.528-2.26l3.665,1.674.1.048,8.714,4a1.1,1.1,0,0,0,.459.1h12.074v-2.2h-9.878a2.184,2.184,0,0,1-2.185-2.1.932.932,0,0,0-.01-.109,2.2,2.2,0,0,1,2.2-2.186h8.419a1.1,1.1,0,0,0,.537-.14l.263-.148a14.9,14.9,0,0,1,7.035-1.807,1.062,1.062,0,0,0,.2.021,14.676,14.676,0,0,1,6.594,1.636Zm14.269,0H1951.1V111.924h12.074Zm0,0" transform="translate(-1905 -61.434)" fill="#fff"/>
      </g>
    </g>
    <rect id="Rectangle_355" data-name="Rectangle 355" width="4" height="1" transform="translate(1953 -168.824)" fill="#fff"/>
    <path id="Path_509" data-name="Path 509" d="M2049.78-207.2a8.79,8.79,0,0,0,8.781-8.781v-4.39a8.78,8.78,0,0,0-8.781-8.781,8.78,8.78,0,0,0-8.78,8.781v4.39a8.791,8.791,0,0,0,8.78,8.781Zm-6.585-13.171a6.586,6.586,0,0,1,6.585-6.586,6.586,6.586,0,0,1,6.586,6.586v4.39a6.586,6.586,0,0,1-6.586,6.586,6.586,6.586,0,0,1-6.585-6.586Zm0,0" transform="translate(-117.341 0)" fill="#fff"/>
    <path id="Path_510" data-name="Path 510" d="M2075.2-191.186a2.2,2.2,0,0,1,1.464-2.071l-.733-2.069a4.4,4.4,0,0,0-2.926,4.139v1.1h2.2Zm0,0" transform="translate(-144.95 -29.191)" fill="#fff"/>
  </g>
</svg>
