<svg xmlns="http://www.w3.org/2000/svg" width="56.436" height="85.157" viewBox="0 0 56.436 85.157">
  <g id="Group_639" data-name="Group 639" transform="translate(-279 -815.464)">
    <g id="Group_89" data-name="Group 89" transform="translate(279 815.463)">
      <g id="Group_87" data-name="Group 87" transform="translate(0 0)">
        <g id="Group_84" data-name="Group 84" transform="translate(16.254 2.548)">
          <path id="Path_228" data-name="Path 228" d="M371.314,1503.678l-.014.1a.923.923,0,0,1-.92.8h-1.462a.926.926,0,0,0-.92.8l-.949,6.64a.924.924,0,0,1-.921.8h-.417a.93.93,0,0,1-.92-1.061l.875-6.114a.929.929,0,0,0-.92-1.061h-.93a.929.929,0,0,1-.92-1.061l.014-.1a.924.924,0,0,1,.92-.8h6.564a.928.928,0,0,1,.92,1.061Zm-9.324,0-.014.1a.925.925,0,0,1-.921.8h-1.461a.925.925,0,0,0-.92.8l-.95,6.64a.923.923,0,0,1-.92.8h-.417a.93.93,0,0,1-.92-1.061l.874-6.114a.929.929,0,0,0-.92-1.061h-.93a.93.93,0,0,1-.92-1.061l.015-.1a.924.924,0,0,1,.92-.8h6.564a.928.928,0,0,1,.92,1.061Zm-13.643,3.437-.159.306a.93.93,0,0,0,.824,1.359h.228a.931.931,0,0,0,.908-1.131c-.01-.045-.02-.089-.031-.134s-.027-.118-.039-.174a.93.93,0,0,0-1.731-.225Zm2.628,4.944c-.022-.111-.046-.225-.07-.339s-.053-.252-.08-.377a.921.921,0,0,0-.91-.74h-2.631a.912.912,0,0,0-.834.519c-.1.2-.2.4-.3.6s-.184.374-.271.557a.909.909,0,0,1-.84.531h-.291a.929.929,0,0,1-.831-1.344q.445-.891.858-1.7.715-1.4,1.384-2.633t1.306-2.346q.5-.88,1.028-1.729a.907.907,0,0,1,.791-.441h1a.917.917,0,0,1,.886.647q.238.749.466,1.522.326,1.11.643,2.346t.63,2.633q.2.908.419,1.922a.929.929,0,0,1-.909,1.121h-.537a.921.921,0,0,1-.911-.749Zm-15.337-8.83q.1.271.206.587.243.713.5,1.545.182.585.356,1.191a.929.929,0,0,0,1.7.2q.406-.71.813-1.395.494-.832.942-1.545.272-.431.5-.781a.907.907,0,0,1,.776-.418h.655a.931.931,0,0,1,.93.949q-.014.624-.045,1.324-.054,1.257-.154,2.618t-.214,2.728q-.075.9-.151,1.727a.926.926,0,0,1-.925.846h-.35a.929.929,0,0,1-.924-1.03q.08-.731.161-1.521a.929.929,0,0,0-1.732-.554c-.124.218-.247.434-.367.643-.146.255-.28.487-.4.7a.909.909,0,0,1-.808.47h-.36a.918.918,0,0,1-.893-.675c-.044-.155-.092-.32-.142-.494-.06-.207-.121-.419-.182-.636a.929.929,0,0,0-1.808.084q-.219,1.185-.405,2.247a.923.923,0,0,1-.915.768h-.327a.929.929,0,0,1-.912-1.109c.092-.472.191-.96.293-1.465q.276-1.367.567-2.728t.6-2.618q.206-.849.406-1.586a.918.918,0,0,1,.9-.686h.846a.916.916,0,0,1,.874.612Z" transform="translate(-331.143 -1502.617)" fill="#0f1b2f"/>
        </g>
        <g id="Group_85" data-name="Group 85" transform="translate(12.037 6.42)">
          <path id="Path_229" data-name="Path 229" d="M323.637,1510.835h1.273a.929.929,0,0,1,.526,1.7,1.793,1.793,0,0,1-1.041.29h-1.273a.929.929,0,0,1-.526-1.695,1.789,1.789,0,0,1,1.041-.291Z" transform="translate(-322.192 -1510.835)" fill="#0f1b2f"/>
        </g>
        <g id="Group_86" data-name="Group 86">
          <path id="Path_230" data-name="Path 230" d="M305.656,1510.238l-.144-.333q-.454-1.037-1.046-2.108a.464.464,0,0,0-.761-.077q-.228.268-.5.608-.575.706-1.164,1.5-.432.586-.831,1.134a3.614,3.614,0,0,1-3.01,1.535h-1.088a.465.465,0,0,1-.379-.734q1.033-1.451,2.285-3.016.882-1.1,1.868-2.279a3.654,3.654,0,0,0,.442-4.114l-2.342-4.464a.464.464,0,0,1,.411-.68h1.066a3.645,3.645,0,0,1,3.349,2.1l.952,1.976a.464.464,0,0,0,.789.078l2.02-2.678a3.612,3.612,0,0,1,2.968-1.479h1.109a.465.465,0,0,1,.363.754l-3.707,4.646a3.654,3.654,0,0,0-.334,4.142q.681,1.209,1.2,2.314.754,1.594,1.242,2.79a.465.465,0,0,1-.43.641h-.909a3.65,3.65,0,0,1-3.419-2.259Z" transform="translate(-296.643 -1497.209)" fill="#0f1b2f"/>
        </g>
      </g>
      <g id="Group_88" data-name="Group 88" transform="translate(3.606 18.22)">
        <path id="Path_231" data-name="Path 231" d="M306.225,1535.881a1.867,1.867,0,0,1,1.153.391l-.189.371a1.475,1.475,0,0,0-.977-.352c-.879,0-1.465.742-1.465,1.941,0,1.231.638,1.967,1.426,1.967a1.161,1.161,0,0,0,.99-.482v-.97h-.586v-.4h.99v2.188H307.2v-.2a1.618,1.618,0,0,1,.013-.183H307.2a1.411,1.411,0,0,1-1.075.462c-.971,0-1.824-.886-1.824-2.371C304.3,1536.793,305.079,1535.881,306.225,1535.881Z" transform="translate(-304.297 -1535.881)" fill="#0f1b2f"/>
        <path id="Path_232" data-name="Path 232" d="M312.815,1538.775h.417v.5a2.483,2.483,0,0,1-.013.254h.013c.111-.43.436-.788.795-.788a.466.466,0,0,1,.137.019v.43a.629.629,0,0,0-.137-.013c-.554,0-.788.84-.788,1.453v1.42h-.424Z" transform="translate(-308.802 -1537.394)" fill="#0f1b2f"/>
        <path id="Path_233" data-name="Path 233" d="M317.536,1538.646c.788,0,1.088.717,1.088,1.459,0,.085-.007.169-.013.273h-1.889c.013.886.417,1.309.925,1.309a1.1,1.1,0,0,0,.794-.339l.124.345a1.372,1.372,0,0,1-.957.384c-.827,0-1.323-.7-1.323-1.746C316.286,1539.31,316.775,1538.646,317.536,1538.646Zm.658,1.388c-.007-.7-.241-1.017-.664-1.017s-.73.359-.808,1.017Z" transform="translate(-310.637 -1537.343)" fill="#0f1b2f"/>
        <path id="Path_234" data-name="Path 234" d="M323.58,1538.646c.788,0,1.088.717,1.088,1.459,0,.085-.007.169-.013.273h-1.889c.013.886.417,1.309.925,1.309a1.1,1.1,0,0,0,.795-.339l.123.345a1.37,1.37,0,0,1-.957.384c-.827,0-1.322-.7-1.322-1.746C322.33,1539.31,322.819,1538.646,323.58,1538.646Zm.658,1.388c-.006-.7-.241-1.017-.664-1.017s-.729.359-.808,1.017Z" transform="translate(-313.834 -1537.343)" fill="#0f1b2f"/>
        <path id="Path_235" data-name="Path 235" d="M328.718,1538.724h.417v.332a1.009,1.009,0,0,1-.019.2h.013a1.053,1.053,0,0,1,1-.612c.605,0,.846.4.846,1.042V1542h-.43v-2.221c0-.358-.058-.729-.515-.729a.973.973,0,0,0-.886,1.029V1542h-.424Z" transform="translate(-317.212 -1537.343)" fill="#0f1b2f"/>
        <path id="Path_236" data-name="Path 236" d="M336.876,1535.881a1.665,1.665,0,0,1,1.081.371l-.189.377a1.413,1.413,0,0,0-.9-.338c-.931,0-1.478.833-1.478,1.921s.56,1.993,1.465,1.993a1.629,1.629,0,0,0,1.01-.371l.17.371a1.823,1.823,0,0,1-1.192.41c-1.185,0-1.9-1.048-1.9-2.39S335.664,1535.881,336.876,1535.881Z" transform="translate(-320.503 -1535.881)" fill="#0f1b2f"/>
        <path id="Path_237" data-name="Path 237" d="M343.653,1538.646c.814,0,1.348.729,1.348,1.706s-.534,1.726-1.355,1.726-1.348-.742-1.348-1.726S342.839,1538.646,343.653,1538.646Zm-.007,3.048c.573,0,.918-.573.918-1.348s-.345-1.315-.918-1.315-.912.547-.912,1.315S343.08,1541.694,343.646,1541.694Z" transform="translate(-324.394 -1537.343)" fill="#0f1b2f"/>
        <path id="Path_238" data-name="Path 238" d="M350.49,1539.988h.17v-.1c0-.671-.235-.866-.593-.866a1.377,1.377,0,0,0-.736.241l-.13-.339a1.545,1.545,0,0,1,.892-.28c.664,0,.99.417.99,1.257v2.1h-.391v-.286c0-.163.013-.28.013-.28h-.013a.954.954,0,0,1-.841.619.859.859,0,0,1-.847-.964C349.005,1540.059,349.989,1539.988,350.49,1539.988Zm-.56,1.7c.489,0,.73-.638.73-1.088v-.273H350.5c-.378,0-1.081.033-1.081.729A.563.563,0,0,0,349.93,1541.688Z" transform="translate(-327.941 -1537.343)" fill="#0f1b2f"/>
        <path id="Path_239" data-name="Path 239" d="M354.924,1538.193h-.332v-.371h.339v-.931h.417v.931h.619v.371h-.619v1.648c0,.762.339.866.554.866a.35.35,0,0,0,.111-.013v.391a.836.836,0,0,1-.163.013c-.312,0-.925-.124-.925-1.218Z" transform="translate(-330.896 -1536.415)" fill="#0f1b2f"/>
        <path id="Path_240" data-name="Path 240" d="M363.137,1535.881a1.666,1.666,0,0,1,1.081.371l-.189.377a1.415,1.415,0,0,0-.9-.338c-.931,0-1.478.833-1.478,1.921s.56,1.993,1.465,1.993a1.63,1.63,0,0,0,1.01-.371l.17.371a1.823,1.823,0,0,1-1.192.41c-1.185,0-1.9-1.048-1.9-2.39S361.925,1535.881,363.137,1535.881Z" transform="translate(-334.392 -1535.881)" fill="#0f1b2f"/>
        <path id="Path_241" data-name="Path 241" d="M369.028,1538.775h.417v.5a2.489,2.489,0,0,1-.013.254h.013c.111-.43.436-.788.795-.788a.471.471,0,0,1,.137.019v.43a.629.629,0,0,0-.137-.013c-.554,0-.788.84-.788,1.453v1.42h-.424Z" transform="translate(-338.531 -1537.394)" fill="#0f1b2f"/>
        <path id="Path_242" data-name="Path 242" d="M373.786,1538.646c.814,0,1.348.729,1.348,1.706s-.534,1.726-1.354,1.726-1.348-.742-1.348-1.726S372.971,1538.646,373.786,1538.646Zm-.006,3.048c.573,0,.918-.573.918-1.348s-.345-1.315-.918-1.315-.912.547-.912,1.315S373.213,1541.694,373.779,1541.694Z" transform="translate(-340.33 -1537.343)" fill="#0f1b2f"/>
        <path id="Path_243" data-name="Path 243" d="M378.9,1538.811h.437l.56,2.436c.039.156.072.352.072.352h.007s.033-.2.065-.352l.586-2.422h.43l.586,2.422a3.406,3.406,0,0,1,.065.352h.013s.032-.189.072-.352l.566-2.436h.424l-.814,3.276h-.482l-.573-2.332c-.039-.156-.065-.359-.065-.359h-.013s-.026.2-.065.359l-.566,2.332h-.489Z" transform="translate(-343.753 -1537.43)" fill="#0f1b2f"/>
        <path id="Path_244" data-name="Path 244" d="M388.375,1538.724h.417v.332a.985.985,0,0,1-.02.2h.013a1.052,1.052,0,0,1,1-.612c.606,0,.847.4.847,1.042V1542h-.43v-2.221c0-.358-.058-.729-.514-.729a.973.973,0,0,0-.886,1.029V1542h-.424Z" transform="translate(-348.762 -1537.343)" fill="#0f1b2f"/>
        <path id="Path_245" data-name="Path 245" d="M397.793,1536.047h1.087a1.085,1.085,0,0,1,1.153,1.146,1.132,1.132,0,0,1-.534,1v.013a1.146,1.146,0,0,1,.677,1.153,1.183,1.183,0,0,1-1.329,1.263h-1.055Zm1.166,1.986c.339,0,.625-.319.625-.807a.709.709,0,0,0-.723-.788h-.632v1.6Zm-.131,2.2a.794.794,0,0,0,.9-.88c0-.592-.326-.931-.723-.931h-.775v1.811Z" transform="translate(-353.743 -1535.969)" fill="#0f1b2f"/>
        <path id="Path_246" data-name="Path 246" d="M404.424,1536.438h-1.238v-.391H406.1v.391h-1.244v4.188h-.43Z" transform="translate(-356.595 -1535.969)" fill="#0f1b2f"/>
      </g>
    </g>
    <g id="Group_239" data-name="Group 239" transform="translate(279 847.941)">
      <g id="Group_238" data-name="Group 238" transform="translate(0 29.084)">
        <text id="LAT_GWARANCJI" data-name="LAT
GWARANCJI" transform="translate(30 11.595)" fill="#0f1b2f" font-size="9" font-family="SegoeUI, Segoe UI"><tspan x="-7.187" y="0">LAT</tspan><tspan x="-24.48" y="10">GWARANCJI</tspan></text>
        <g id="Group_237" data-name="Group 237" transform="translate(20.123 0)">
          <path id="Path_352" data-name="Path 352" d="M321.092,1213.55H343.3v.468h-22.21v-.468Z" transform="translate(-321.092 -1213.55)" fill="#0f1b2f" fill-rule="evenodd"/>
        </g>
      </g>
      <text id="_60" data-name="60" transform="translate(28.993 20)" fill="#0f1b2f" font-size="21" font-family="MuseoSans-100, 'Museo Sans \31 00'" font-weight="100"><tspan x="-12.747" y="0">60</tspan></text>
    </g>
    <text id="do" transform="translate(289 879.415)" fill="#42454a" font-size="8" font-family="MuseoSans-300, 'Museo Sans \33 00'" font-weight="300"><tspan x="-4.844" y="0">do</tspan></text>
  </g>
</svg>
