<?xml version="1.0" encoding="utf-8"?>
<!-- Generator: Adobe Illustrator 25.2.3, SVG Export Plug-In . SVG Version: 6.00 Build 0)  -->
<svg version="1.1" id="Warstwa_1" xmlns="http://www.w3.org/2000/svg" xmlns:xlink="http://www.w3.org/1999/xlink" x="0px" y="0px"
	 viewBox="0 0 100 100" style="enable-background:new 0 0 100 100;" xml:space="preserve">
<style type="text/css">
	.st0{fill:#1D1D1B;}
	.st1{fill:none;}
	.st2{fill-rule:evenodd;clip-rule:evenodd;}
</style>
<g>
	<g>
		<path d="M40.9,61c7.5-3.8,15-7.8,22.5-11.6c-7.5-4-15-7.8-22.5-11.8L40.9,61z"/>
	</g>
	<g>
		<path d="M50,0C22.4,0,0,22.4,0,50s22.4,50,50,50s50-22.4,50-50S77.6,0,50,0L50,0z M84,66.8c-0.9,3.7-4,6.5-7.7,6.9
			c-8.7,1-17.6,1-26.5,1s-17.6,0-26.5-1c-3.7-0.4-6.8-3.2-7.7-6.9c-1.3-5.4-1.3-11.1-1.3-16.8c0-5.5,0-11.4,1.3-16.8
			c0.9-3.7,4-6.5,7.7-6.9c8.7-1,17.6-1,26.5-1s17.6,0,26.5,1c3.7,0.4,6.8,3.2,7.7,6.9c1.3,5.4,1.3,11.3,1.3,16.8S85.3,61.4,84,66.8
			L84,66.8z"/>
	</g>
</g>
</svg>
