<?xml version="1.0" encoding="utf-8"?>
<!-- Generator: Adobe Illustrator 25.2.3, SVG Export Plug-In . SVG Version: 6.00 Build 0)  -->
<svg version="1.1" id="Warstwa_1" xmlns="http://www.w3.org/2000/svg" xmlns:xlink="http://www.w3.org/1999/xlink" x="0px" y="0px"
	 viewBox="0 0 100 100" style="enable-background:new 0 0 100 100;" xml:space="preserve">
<style type="text/css">
	.st0{fill:#1D1D1B;}
	.st1{fill:none;}
	.st2{fill-rule:evenodd;clip-rule:evenodd;}
</style>
<g>
	<g>
		<path class="st0" d="M49.8,75.1L49.8,75.1L49.8,75.1C49.8,75.1,49.8,75.1,49.8,75.1L49.8,75.1C49.8,75.1,49.8,75.1,49.8,75.1
			L49.8,75.1c-0.1,0-0.2,0-0.3,0c0,0,0,0,0,0s0,0,0,0c-0.1,0-0.2-0.1-0.2-0.1l-25-12.5c-0.4-0.2-0.7-0.6-0.7-1.1V43.9
			c0-0.2,0.1-0.5,0.2-0.7l12.5-18.7c0.3-0.5,1-0.7,1.6-0.4l25,12.5c0,0,0,0,0,0l12.5,6.2c0.4,0.2,0.7,0.6,0.7,1.1v17.5
			c0,0.5-0.3,0.9-0.7,1.1L50.4,75c-0.1,0-0.2,0.1-0.2,0.1h0c0,0,0,0,0,0c0,0,0,0,0,0c0,0,0,0,0,0C50,75.1,49.9,75.1,49.8,75.1
			L49.8,75.1C49.8,75.1,49.8,75.1,49.8,75.1L49.8,75.1C49.8,75.1,49.8,75.1,49.8,75.1z M51.1,56.8v15.1l22.5-11.2V44.7l-10.8-5.4
			L51.1,56.8z M26.1,60.6l22.5,11.2V56.4c0-0.2,0.1-0.5,0.2-0.7l11.7-17.6L37.8,26.8L26.1,44.3V60.6z"/>
	</g>
	<g>
		<path class="st0" d="M49.8,75.1c-0.2,0-0.4,0-0.6-0.1l-25-12.5c-0.4-0.2-0.7-0.6-0.7-1.1V43.9c0-0.5,0.3-0.9,0.7-1.1l12.5-6.2
			c0,0,0,0,0,0l25-12.5c0.6-0.3,1.2-0.1,1.6,0.4l12.5,18.7c0.3,0.5,0.3,1.1-0.1,1.5c-0.4,0.4-1,0.5-1.5,0.3l-11.5-5.8L51.1,56.8
			v17.1c0,0.4-0.2,0.8-0.6,1.1C50.3,75.1,50.1,75.1,49.8,75.1z M26.1,60.6l22.5,11.2V56.8L36.9,39.3l-10.8,5.4V60.6z M39.2,38.2
			l10.7,16L61.3,37c0.3-0.5,1-0.7,1.6-0.4l8.3,4.1l-9.3-13.9L39.2,38.2z"/>
	</g>
	<g>
		<rect x="37.1" y="26.2" class="st0" width="0.3" height="11.4"/>
	</g>
	<g>
		<rect x="33.6" y="32.2" class="st0" width="0.3" height="7.5"/>
	</g>
	<g>
		<rect x="30" y="37.8" class="st0" width="0.3" height="3.7"/>
	</g>
	<g>
		<rect x="40.7" y="26.7" class="st0" width="0.4" height="14.2"/>
	</g>
	<g>
		<rect x="44.1" y="27.9" class="st0" width="0.5" height="18.6"/>
	</g>
	<g>
		<rect x="47.7" y="29.7" class="st0" width="0.5" height="22"/>
	</g>
	<g>
		<rect x="51.2" y="31.5" class="st0" width="0.6" height="22.5"/>
	</g>
	<g>
		<rect x="54.6" y="29" class="st0" width="0.8" height="19.4"/>
	</g>
	<g>
		<rect x="57.9" y="27" class="st0" width="1.3" height="16.3"/>
	</g>
	<g>
		<rect x="61.9" y="24.4" class="st0" width="0.5" height="12.7"/>
	</g>
	<g>
		<rect x="65.5" y="30" class="st0" width="0.4" height="9.5"/>
	</g>
	<g>
		<rect x="69" y="35.1" class="st0" width="0.5" height="5.8"/>
	</g>
</g>
</svg>
