<?xml version="1.0" encoding="utf-8"?>
<!-- Generator: Adobe Illustrator 25.2.3, SVG Export Plug-In . SVG Version: 6.00 Build 0)  -->
<svg version="1.1" id="Warstwa_1" xmlns="http://www.w3.org/2000/svg" xmlns:xlink="http://www.w3.org/1999/xlink" x="0px" y="0px"
	 viewBox="0 0 100 100" style="enable-background:new 0 0 100 100;" xml:space="preserve">
<style type="text/css">
	.st0{fill:#1D1D1B;}
	.st1{fill:none;}
	.st2{fill-rule:evenodd;clip-rule:evenodd;}
</style>
<g>
	<path d="M96.9,91L73.2,66.2c6.1-7.2,9.4-16.4,9.4-25.9C82.6,18.2,64.4,0,42.3,0S1.9,18.2,1.9,40.4s18.2,40.4,40.4,40.4
		c8.3,0,16.2-2.4,23-7.2l23.9,25c1.1,1.1,2.4,1.5,3.7,1.5s2.6-0.4,3.7-1.5C98.9,96.5,98.9,93.2,96.9,91L96.9,91z M42.3,10.5
		c16.4,0,29.8,13.4,29.8,29.8S58.7,70.2,42.3,70.2S12.5,56.8,12.5,40.4C12.5,23.9,25.8,10.5,42.3,10.5L42.3,10.5z"/>
</g>
</svg>
