<?xml version="1.0" encoding="utf-8"?>
<!-- Generator: Adobe Illustrator 25.2.3, SVG Export Plug-In . SVG Version: 6.00 Build 0)  -->
<svg version="1.1" id="Warstwa_1" xmlns="http://www.w3.org/2000/svg" xmlns:xlink="http://www.w3.org/1999/xlink" x="0px" y="0px"
	 viewBox="0 0 100 100" style="enable-background:new 0 0 100 100;" xml:space="preserve">
<style type="text/css">
	.st0{fill:#1D1D1B;}
	.st1{fill:none;}
	.st2{fill-rule:evenodd;clip-rule:evenodd;}
</style>
<g>
	<g>
		<path d="M100,12.4c0-2.6-1.6-4.2-4.2-4.2H4.2C1.6,8.2,0,9.8,0,12.4v8.3c0,2.6,1.6,4.2,4.2,4.2h91.7c2.6,0,4.2-1.6,4.2-4.2
			L100,12.4z"/>
	</g>
	<g>
		<path d="M100,45.7c0-2.6-1.6-4.2-4.2-4.2H4.2c-2.6,0-4.2,1.6-4.2,4.2v8.3c0,2.6,1.6,4.2,4.2,4.2h91.7c2.6,0,4.2-1.6,4.2-4.2
			L100,45.7z"/>
	</g>
	<g>
		<path d="M100,79.1c0-2.6-1.6-4.2-4.2-4.2H4.2c-2.6,0-4.2,1.6-4.2,4.2v8.3c0,2.6,1.6,4.2,4.2,4.2h91.7c2.6,0,4.2-1.6,4.2-4.2
			L100,79.1z"/>
	</g>
</g>
</svg>
