<?xml version="1.0" encoding="utf-8"?>
<!-- Generator: Adobe Illustrator 25.2.3, SVG Export Plug-In . SVG Version: 6.00 Build 0)  -->
<svg version="1.1" id="Warstwa_1" xmlns="http://www.w3.org/2000/svg" xmlns:xlink="http://www.w3.org/1999/xlink" x="0px" y="0px"
	 viewBox="0 0 100 100" style="enable-background:new 0 0 100 100;" xml:space="preserve">
<style type="text/css">
	.st0{fill:#1D1D1B;}
	.st1{fill:none;}
	.st2{fill-rule:evenodd;clip-rule:evenodd;}
</style>
<g>
	<g>
		<path d="M50,0C31.8,0,16.9,14.8,16.9,33.1c0,7.3,4.7,19.3,14.3,36.6c6.8,12.2,13.5,22.4,13.8,22.9L50,100l4.9-7.5
			c0.3-0.4,7-10.6,13.8-22.9c9.6-17.3,14.3-29.3,14.3-36.6C83.1,14.8,68.2,0,50,0L50,0z M50,50c-9.5,0-17.1-7.7-17.1-17.1
			c0-9.5,7.7-17.1,17.1-17.1c9.5,0,17.1,7.7,17.1,17.1C67.1,42.3,59.5,50,50,50L50,50z M50,50"/>
	</g>
</g>
</svg>
