<?xml version="1.0" encoding="utf-8"?>
<!-- Generator: Adobe Illustrator 25.2.3, SVG Export Plug-In . SVG Version: 6.00 Build 0)  -->
<svg version="1.1" id="Warstwa_1" xmlns="http://www.w3.org/2000/svg" xmlns:xlink="http://www.w3.org/1999/xlink" x="0px" y="0px"
	 viewBox="0 0 100 100" style="enable-background:new 0 0 100 100;" xml:space="preserve">
<style type="text/css">
	.st0{fill:#1D1D1B;}
	.st1{fill:none;}
	.st2{fill-rule:evenodd;clip-rule:evenodd;}
</style>
<g>
	<g>
		<path class="st0" d="M28.7,77.4c0,0-0.1,0-0.1,0c-0.8-0.1-1.4-0.7-1.3-1.5L28.9,57c0.1-1.2-0.2-2.2-1-3l-3.4-3.6
			c-1.3-1.4-1.9-3.2-1.8-5.1l0.4-4.7c0.2-2.7,1.8-5.7,4.7-6.3l2.7-0.6c0.8-0.2,1.5,0.3,1.7,1.1c0.2,0.8-0.3,1.5-1.1,1.7L28.4,37
			c-1.5,0.3-2.3,2.2-2.4,3.8l-0.4,4.7c-0.1,1.2,0.2,2.2,1,3l3.4,3.6c1.3,1.4,1.9,3.2,1.8,5.1l-1.5,18.9
			C30.1,76.9,29.5,77.4,28.7,77.4z"/>
	</g>
	<g>
		<path class="st0" d="M42.9,77.7c-0.7,0-1.4-0.6-1.4-1.3l-1.6-19.1c-0.2-2,0.4-3.8,1.8-5.1l3.4-3.6c0.8-0.8,1.1-1.8,1-3l-0.4-4.7
			c-0.1-1.6-0.9-3.5-2.4-3.8l-2.7-0.6c-0.8-0.2-1.3-0.9-1.1-1.7c0.2-0.8,0.9-1.3,1.7-1.1l2.7,0.6c2.9,0.6,4.4,3.6,4.7,6.3l0.4,4.7
			c0.2,2-0.4,3.7-1.8,5.1l-3.4,3.6c-0.8,0.8-1.1,1.8-1,3l1.6,19.1c0.1,0.8-0.5,1.5-1.3,1.5C43,77.7,42.9,77.7,42.9,77.7z"/>
	</g>
	<g>
		<path class="st0" d="M41.3,28c-0.8,0-1.4-0.6-1.4-1.4c0-1.5-0.5-2.7-1.3-3.5c-0.8-0.7-1.8-1.1-2.9-1.1c-2.1,0-4.3,1.4-4.3,4.6
			c0,0.8-0.6,1.4-1.4,1.4s-1.4-0.6-1.4-1.4c0-4.9,3.6-7.4,7.1-7.4c1.8,0,3.6,0.7,4.9,1.9c1,1,2.2,2.7,2.2,5.6
			C42.7,27.4,42.1,28,41.3,28z"/>
	</g>
	<g>
		<path class="st0" d="M60.4,77.4c0,0-0.1,0-0.1,0c-0.8-0.1-1.4-0.7-1.3-1.5l1.2-14.2c0.1-0.8,0.7-1.4,1.5-1.3
			c0.8,0.1,1.4,0.7,1.3,1.5l-1.2,14.2C61.8,76.9,61.1,77.4,60.4,77.4z"/>
	</g>
	<g>
		<path class="st0" d="M68.9,77.7c-0.7,0-1.4-0.6-1.4-1.3L66.3,62c-0.1-0.8,0.5-1.5,1.3-1.5c0.8-0.1,1.5,0.5,1.5,1.3l1.2,14.3
			c0.1,0.8-0.5,1.5-1.3,1.5C69,77.7,69,77.7,68.9,77.7z"/>
	</g>
	<g>
		<path class="st0" d="M73.8,63.3c-0.5,0-0.9-0.2-1.2-0.6l-3.2-4.8c-0.1-0.2-0.3-0.4-0.5-0.7c-0.9-1.3-2.5-3.4-0.8-5.1l3.4-3.6
			c0.8-0.8,1.1-1.8,1-3L72,40.8c-0.1-1.6-0.9-3.5-2.4-3.8c-0.8-0.2-1.3-0.9-1.1-1.7c0.2-0.8,0.9-1.3,1.7-1.1
			c2.9,0.6,4.5,3.6,4.7,6.3l0.4,4.7c0.2,2-0.4,3.7-1.8,5.1L70.2,54c0.1,0.4,0.7,1.1,1,1.6c0.2,0.3,0.4,0.5,0.6,0.8l3.2,4.8
			c0.4,0.6,0.3,1.5-0.4,2C74.3,63.3,74,63.3,73.8,63.3z M56.3,63.3c-0.3,0-0.6-0.1-0.8-0.2c-0.6-0.4-0.8-1.3-0.4-2l3.2-4.7
			c0.2-0.2,0.4-0.5,0.5-0.7c0.3-0.4,0.9-1.2,1-1.6l-3.3-3.5c-1.3-1.4-1.9-3.2-1.8-5.1l0.4-4.7c0.2-2.7,1.8-5.7,4.7-6.3
			c0.8-0.2,1.5,0.3,1.7,1.1s-0.3,1.5-1.1,1.7c-1.5,0.3-2.3,2.2-2.4,3.8l-0.4,4.7c-0.1,1.2,0.2,2.2,1,3l3.4,3.6
			c1.7,1.8,0.1,3.9-0.8,5.2c-0.2,0.2-0.3,0.4-0.5,0.7l-3.2,4.7C57.2,63.1,56.7,63.3,56.3,63.3z M69.1,30.8c-0.8,0-1.4-0.6-1.4-1.4
			c0-1-0.3-1.8-0.9-2.4c-1.5-1.4-4.8-0.9-4.8,2.4c0,0.8-0.6,1.4-1.4,1.4s-1.4-0.6-1.4-1.4c0-3.9,2.9-5.9,5.7-5.9
			c1.5,0,2.9,0.5,3.9,1.5c0.8,0.8,1.8,2.2,1.8,4.4C70.5,30.2,69.9,30.8,69.1,30.8z"/>
	</g>
</g>
</svg>
