<?xml version="1.0" encoding="utf-8"?>
<!-- Generator: Adobe Illustrator 25.2.3, SVG Export Plug-In . SVG Version: 6.00 Build 0)  -->
<svg version="1.1" id="Warstwa_1" xmlns="http://www.w3.org/2000/svg" xmlns:xlink="http://www.w3.org/1999/xlink" x="0px" y="0px"
	 viewBox="0 0 100 100" style="enable-background:new 0 0 100 100;" xml:space="preserve">
<style type="text/css">
	.st0{fill:#1D1D1B;}
	.st1{fill:none;}
	.st2{fill-rule:evenodd;clip-rule:evenodd;}
</style>
<g>
	<path d="M65.4,50l33.8-33.8c0.8-0.8,0.8-2.1,0-3L86.8,0.7C86.4,0.3,85.9,0,85.2,0c-0.5,0-1,0.3-1.4,0.7L50,34.5L16.1,0.7
		c-0.8-0.8-2.2-0.8-3,0L0.7,13.1c-0.8,0.8-0.8,2.1,0,3L34.5,50L0.7,83.8c-0.8,0.8-0.8,2.1,0,3l12.5,12.5c0.4,0.4,0.9,0.7,1.4,0.7
		c0.5,0,1-0.3,1.4-0.7l33.8-33.8l33.8,33.8c0.4,0.4,0.9,0.7,1.4,0.7s1-0.3,1.4-0.7L99,86.8c0.8-0.8,0.8-2.1,0-3L65.4,50z"/>
</g>
</svg>
