<?xml version="1.0" encoding="utf-8"?>
<!-- Generator: Adobe Illustrator 25.2.3, SVG Export Plug-In . SVG Version: 6.00 Build 0)  -->
<svg version="1.1" id="Warstwa_1" xmlns="http://www.w3.org/2000/svg" xmlns:xlink="http://www.w3.org/1999/xlink" x="0px" y="0px"
	 viewBox="0 0 100 100" style="enable-background:new 0 0 100 100;" xml:space="preserve">
<style type="text/css">
	.st0{fill:#1D1D1B;}
	.st1{fill:none;}
	.st2{fill-rule:evenodd;clip-rule:evenodd;}
</style>
<g>
	<g>
		<path class="st0" d="M72.8,65.3C72.8,65.3,72.8,65.3,72.8,65.3l-25.2,0c-0.1,0-0.2,0-0.2,0l-10.5,0c0,0,0,0,0,0l-10.5,0
			c-0.5,0-1-0.3-1.3-0.8c-0.2-0.5-0.2-1.1,0.1-1.5l6.3-8.4c0,0,0,0,0,0l6.3-8.4c0.3-0.4,0.7-0.6,1.1-0.6c0,0,0,0,0,0l21.1,0
			c0.4,0,0.9,0.2,1.1,0.6L73.9,63c0.3,0.4,0.4,1,0.1,1.5C73.8,65,73.3,65.3,72.8,65.3z M50.3,62.4l19.6,0l-9.8-13.1l-5.2,6.9
			c0,0,0,0,0,0L50.3,62.4z M39.7,62.4l7,0l4.2-5.6l-7,0L39.7,62.4z M29.2,62.4l7,0l4.2-5.6l-7,0L29.2,62.4z M46.1,54l7,0l4.2-5.6
			l-7,0L46.1,54z M35.5,54l7,0l4.2-5.6l-7,0L35.5,54z"/>
	</g>
	<g>
		<path class="st0" d="M83.7,48.3H72.3c-0.8,0-1.4-0.6-1.4-1.4c0-7.1-2.3-13-6.6-17.1c-3.8-3.6-9-5.6-14.6-5.6
			c-10.3,0-21.3,7.1-21.3,22.7c0,0.8-0.6,1.4-1.4,1.4s-1.4-0.6-1.4-1.4c0-16.8,12.1-25.5,24.1-25.5c6.3,0,12.2,2.3,16.5,6.4
			c4.6,4.4,7.2,10.5,7.5,17.7h9.9c0.8,0,1.4,0.6,1.4,1.4S84.4,48.3,83.7,48.3z"/>
	</g>
</g>
</svg>
