<?xml version="1.0" encoding="utf-8"?>
<!-- Generator: Adobe Illustrator 25.2.3, SVG Export Plug-In . SVG Version: 6.00 Build 0)  -->
<svg version="1.1" id="Warstwa_1" xmlns="http://www.w3.org/2000/svg" xmlns:xlink="http://www.w3.org/1999/xlink" x="0px" y="0px"
	 viewBox="0 0 100 100" style="enable-background:new 0 0 100 100;" xml:space="preserve">
<style type="text/css">
	.st0{fill:#1D1D1B;}
	.st1{fill:none;}
	.st2{fill-rule:evenodd;clip-rule:evenodd;}
</style>
<g>
	<path d="M50,0C22.4,0,0,22.4,0,50s22.4,50,50,50s50-22.4,50-50S77.6,0,50,0z M53.6,65.8c-3.6,4.6-9,6.8-14.7,7
		c-2.6,0.1-5.1-0.3-7.6-1.1c-7.1-2.3-12.6-8.9-13.7-16.3c-0.1-1-0.2-2.1-0.2-3.2c-0.4-10.6,8.9-20.5,19.5-20.6
		c5.5-0.4,10.8,1.7,14.9,5.1c-1.7,1.9-3.5,3.7-5.2,5.3c-1.1-0.7-2.3-1.3-3.6-1.8c-2.8-1.1-5.7-1.6-8.6-0.6c-6.3,1.8-10.4,9-8.8,15.4
		c0.1,0.4,0.2,0.9,0.4,1.2c0.3,1.2,1,2.3,1.7,3.3c0,0.1,0.1,0.1,0.1,0.2c0.1,0.2,0.3,0.3,0.4,0.6c0.1,0.1,0.2,0.3,0.4,0.4
		C28.8,61,29,61,29,61.1c0.2,0.2,0.4,0.4,0.7,0.7c0.1,0,0.1,0.1,0.2,0.1c0.2,0.2,0.6,0.4,0.9,0.7c0.1,0.1,0.1,0.1,0.2,0.1
		c0.3,0.2,0.6,0.3,0.9,0.6c3.5,2,7.7,2.4,11.5,0.8c3.5-1.2,5.7-4.3,6.7-7.8c-3.9-0.1-7.9,0-11.8-0.1c0-2.3,0-4.7,0-7
		c6.6,0,13.1,0,19.7,0c0,0.1,0,0.2,0,0.3C58,55.3,57.1,61.2,53.6,65.8z M82.3,55.1c-2,0-3.9,0-5.9,0c0,2,0,3.9,0,5.9
		c-2,0-3.9,0-5.9,0c0-2,0-3.9,0-5.9c-2,0-3.9,0-5.9,0v-5.9c2,0,3.9,0,5.9,0c0-2,0-3.9,0-5.9h5.9c0,2,0,3.9,0,5.9c2,0,3.9,0,5.9,0
		V55.1z"/>
</g>
</svg>
