<?xml version="1.0" encoding="utf-8"?>
<!-- Generator: Adobe Illustrator 25.2.3, SVG Export Plug-In . SVG Version: 6.00 Build 0)  -->
<svg version="1.1" id="Warstwa_1" xmlns="http://www.w3.org/2000/svg" xmlns:xlink="http://www.w3.org/1999/xlink" x="0px" y="0px"
	 viewBox="0 0 100 100" style="enable-background:new 0 0 100 100;" xml:space="preserve">
<style type="text/css">
	.st0{fill:#1D1D1B;}
	.st1{fill:none;}
	.st2{fill-rule:evenodd;clip-rule:evenodd;}
</style>
<g>
	<g>
		<path class="st0" d="M26.4,55.1c-0.7,0-1.2-0.5-1.2-1.2V36.1c0-0.7,0.5-1.2,1.2-1.2s1.2,0.5,1.2,1.2v17.8
			C27.6,54.5,27,55.1,26.4,55.1z"/>
	</g>
	<g>
		<path class="st0" d="M50.1,78.8c-0.2,0-0.4,0-0.5-0.1L25.8,66.8c-0.6-0.3-0.8-1-0.5-1.6c0.3-0.6,1-0.8,1.6-0.5l23.2,11.6
			l23.2-11.6c0.6-0.3,1.3-0.1,1.6,0.5c0.3,0.6,0.1,1.3-0.5,1.6L50.6,78.6C50.4,78.7,50.3,78.8,50.1,78.8z"/>
	</g>
	<g>
		<path class="st0" d="M50.1,49.1c-0.2,0-0.4,0-0.5-0.1L25.8,37.2c-0.4-0.2-0.7-0.6-0.7-1.1s0.3-0.9,0.7-1.1l23.7-11.9
			c0.3-0.2,0.7-0.2,1.1,0L74.3,35c0.4,0.2,0.7,0.6,0.7,1.1s-0.3,0.9-0.7,1.1L50.6,49C50.4,49.1,50.3,49.1,50.1,49.1z M29,36.1
			l21.1,10.5l21.1-10.5L50.1,25.6L29,36.1z"/>
	</g>
	<g>
		<path class="st0" d="M50.1,66.9c-0.7,0-1.2-0.5-1.2-1.2V47.9c0-0.7,0.5-1.2,1.2-1.2s1.2,0.5,1.2,1.2v17.8
			C51.3,66.4,50.7,66.9,50.1,66.9z M73.8,55.1c-0.7,0-1.2-0.5-1.2-1.2V36.1c0-0.7,0.5-1.2,1.2-1.2s1.2,0.5,1.2,1.2v17.8
			C75,54.5,74.4,55.1,73.8,55.1z"/>
	</g>
</g>
</svg>
