<?xml version="1.0" encoding="utf-8"?>
<!-- Generator: Adobe Illustrator 25.2.3, SVG Export Plug-In . SVG Version: 6.00 Build 0)  -->
<svg version="1.1" id="Warstwa_1" xmlns="http://www.w3.org/2000/svg" xmlns:xlink="http://www.w3.org/1999/xlink" x="0px" y="0px"
	 viewBox="0 0 100 100" style="enable-background:new 0 0 100 100;" xml:space="preserve">
<style type="text/css">
	.st0{fill:#1D1D1B;}
	.st1{fill:none;}
	.st2{fill-rule:evenodd;clip-rule:evenodd;}
</style>
<g>
	<path class="st2" d="M33.5,26.1L14.3,45.3l9.6,9.6l19.3-19.3L33.5,26.1z M66.5,26.1l19.3,19.3L76.1,55L56.8,35.7L66.5,26.1z
		 M24.9,63.9c-2.1,0-3.8,1.7-3.8,3.8v16.9c0,2.1,1.7,3.8,3.8,3.8h50.1c2.1,0,3.8-1.7,3.8-3.8V67.7c0-2.1-1.7-3.8-3.8-3.8H24.9z
		 M65.9,79.8h-2.5v-7.5h2.5c2.4,0,4.2,1.1,4.2,3.7C70.1,78.6,68.3,79.8,65.9,79.8z M47.7,76.1c0-5.1,8.5-5.1,8.5,0
		C56.2,81.2,47.7,81.2,47.7,76.1z M45.4,76.1c0,7.9,13.2,7.9,13.2,0C58.5,68.2,45.4,68.2,45.4,76.1z M29.8,70.3v11.5
		c1.3,0,2.3-1,2.3-2.3v-6l4.2,4l4.2-4v8.3c1.3,0,2.3-1,2.3-2.3v-9.2c-2.3,0-3.2,0.9-4.1,1.7l-2.4,2.4l-2.7-2.7
		C32.8,71,32.1,70.3,29.8,70.3z M61.1,70.3v11.5l4.2,0c3.8,0,7.2-1.6,7.2-5.8c0-4.3-3.4-5.7-7.2-5.7H61.1z M24.9,61.8h50.1
		c3.2,0,5.9,2.6,5.9,5.8v16.9c0,3.2-2.6,5.8-5.9,5.8H24.9c-3.2,0-5.9-2.6-5.9-5.8V67.7C19.1,64.4,21.7,61.8,24.9,61.8z M50,9.6
		l9.6,9.6L50,28.9l-9.6-9.6L50,9.6z"/>
</g>
</svg>
