<?xml version="1.0" encoding="utf-8"?>
<!-- Generator: Adobe Illustrator 25.2.3, SVG Export Plug-In . SVG Version: 6.00 Build 0)  -->
<svg version="1.1" id="Warstwa_1" xmlns="http://www.w3.org/2000/svg" xmlns:xlink="http://www.w3.org/1999/xlink" x="0px" y="0px"
	 viewBox="0 0 100 100" style="enable-background:new 0 0 100 100;" xml:space="preserve">
<style type="text/css">
	.st0{fill:#1D1D1B;}
	.st1{fill:none;}
	.st2{fill-rule:evenodd;clip-rule:evenodd;}
</style>
<g>
	<g>
		<path class="st0" d="M26.8,77.6c0,0-0.1,0-0.1,0c-0.8-0.1-1.4-0.7-1.3-1.5l1.5-18.9c0.1-1.2-0.2-2.2-1-3l-3.4-3.6
			c-1.3-1.4-1.9-3.2-1.8-5.1l0.4-4.7c0.2-2.7,1.8-5.7,4.7-6.3l2.7-0.6c0.8-0.2,1.5,0.3,1.7,1.1c0.2,0.8-0.3,1.5-1.1,1.7l-2.7,0.6
			C25,37.5,24.1,39.4,24,41l-0.4,4.7c-0.1,1.2,0.2,2.2,1,3l3.4,3.6c1.3,1.4,1.9,3.2,1.8,5.1l-1.5,18.9
			C28.1,77.1,27.5,77.6,26.8,77.6z"/>
	</g>
	<g>
		<path class="st0" d="M41,77.9c-0.7,0-1.4-0.6-1.4-1.3L38,57.5c-0.2-2,0.4-3.7,1.8-5.1l3.4-3.6c0.8-0.8,1.1-1.8,1-3L43.7,41
			c-0.1-1.6-0.9-3.5-2.4-3.8l-2.7-0.6c-0.8-0.2-1.3-0.9-1.1-1.7c0.2-0.8,0.9-1.3,1.7-1.1l2.7,0.6c2.9,0.6,4.4,3.6,4.7,6.3l0.4,4.7
			c0.2,2-0.4,3.8-1.8,5.1l-3.4,3.6c-0.8,0.8-1.1,1.8-1,3l1.6,19.1c0.1,0.8-0.5,1.5-1.3,1.5C41,77.9,41,77.9,41,77.9z"/>
	</g>
	<g>
		<path class="st0" d="M42.2,28.2h-2.8c-0.8,0-1.4-0.6-1.4-1.4c0-1.5-0.5-2.7-1.3-3.5c-0.8-0.7-1.8-1.1-2.9-1.1
			c-2.1,0-4.3,1.4-4.3,4.6c0,0.8-0.6,1.4-1.4,1.4s-1.4-0.6-1.4-1.4c0-4.9,3.6-7.5,7.1-7.5c1.8,0,3.6,0.7,4.9,1.9
			c0.8,0.8,1.8,2.1,2.1,4.1h1.5c0.8,0,1.4,0.6,1.4,1.4S43,28.2,42.2,28.2z"/>
	</g>
	<g>
		<path class="st0" d="M74.3,77.9c-0.7,0-1.4-0.6-1.4-1.3l-1.6-19.1c-0.2-2,0.4-3.7,1.8-5.1l3.4-3.6c0.8-0.8,1.1-1.8,1-3L77.1,41
			c-0.1-1.6-0.9-3.5-2.4-3.8l-2.7-0.6c-0.8-0.2-1.3-0.9-1.1-1.7c0.2-0.8,0.9-1.3,1.7-1.1l2.7,0.6c2.9,0.6,4.5,3.6,4.7,6.3l0.4,4.7
			c0.2,2-0.4,3.8-1.8,5.1l-3.4,3.6c-0.8,0.8-1.1,1.8-1,3l1.6,19.1c0.1,0.8-0.5,1.5-1.3,1.5C74.4,77.9,74.3,77.9,74.3,77.9z
			 M60.1,77.6c0,0-0.1,0-0.1,0c-0.8-0.1-1.4-0.7-1.3-1.5l1.5-18.9c0.1-1.2-0.2-2.2-1-3l-3.4-3.6c-1.3-1.4-1.9-3.2-1.8-5.1l0.4-4.7
			c0.2-2.7,1.8-5.7,4.7-6.3l2.7-0.6c0.8-0.2,1.5,0.3,1.7,1.1s-0.3,1.5-1.1,1.7l-2.7,0.6c-1.5,0.3-2.3,2.2-2.4,3.8l-0.4,4.7
			c-0.1,1.2,0.2,2.2,1,3l3.4,3.6c1.3,1.4,1.9,3.2,1.8,5.1l-1.5,18.9C61.5,77.1,60.8,77.6,60.1,77.6z M75.5,28.2h-2.8
			c-0.8,0-1.4-0.6-1.4-1.4c0-1.5-0.5-2.7-1.3-3.5c-0.8-0.7-1.8-1.1-2.9-1.1c-2.1,0-4.3,1.4-4.3,4.6c0,0.8-0.6,1.4-1.4,1.4
			S60,27.5,60,26.8c0-4.9,3.6-7.5,7.1-7.5c1.8,0,3.6,0.7,4.9,1.9c0.8,0.8,1.8,2.1,2.1,4.1h1.5c0.8,0,1.4,0.6,1.4,1.4
			S76.3,28.2,75.5,28.2z"/>
	</g>
</g>
</svg>
