<?xml version="1.0" encoding="utf-8"?>
<!-- Generator: Adobe Illustrator 25.2.3, SVG Export Plug-In . SVG Version: 6.00 Build 0)  -->
<svg version="1.1" id="Warstwa_1" xmlns="http://www.w3.org/2000/svg" xmlns:xlink="http://www.w3.org/1999/xlink" x="0px" y="0px"
	 viewBox="0 0 100 100" style="enable-background:new 0 0 100 100;" xml:space="preserve">
<style type="text/css">
	.st0{fill:#1D1D1B;}
	.st1{fill:none;}
	.st2{fill-rule:evenodd;clip-rule:evenodd;}
</style>
<g>
	<path d="M-549.6-190.1l33.8-33.8c0.8-0.8,0.8-2.1,0-3l-12.5-12.5c-0.4-0.4-0.9-0.7-1.6-0.7c-0.5,0-1,0.3-1.4,0.7l-33.8,33.8
		l-33.8-33.8c-0.8-0.8-2.2-0.8-3,0l-12.5,12.5c-0.8,0.8-0.8,2.1,0,3l33.8,33.8l-33.8,33.8c-0.8,0.8-0.8,2.1,0,3l12.5,12.5
		c0.4,0.4,0.9,0.7,1.4,0.7c0.5,0,1-0.3,1.4-0.7l33.8-33.8l33.8,33.8c0.4,0.4,0.9,0.7,1.4,0.7s1-0.3,1.4-0.7l12.5-12.5
		c0.8-0.8,0.8-2.1,0-3L-549.6-190.1z"/>
</g>
<g>
	<path d="M-395-182.9h-42.9v42.9h-14.3v-42.9H-495v-14.3h42.9V-240h14.3v42.9h42.9V-182.9z"/>
</g>
<g>
	<path d="M-325-240c-27.6,0-50,22.4-50,50s22.4,50,50,50s50-22.4,50-50S-297.4-240-325-240L-325-240z M-313.2-205.5h-7.6
		c-0.9,0-1.8,1.2-1.8,2.7v5.5h9.4v7.7h-9.4v23.2h-8.9v-23.2h-8.1v-7.7h8.1v-4.6c0-6.5,4.6-11.8,10.8-11.8h7.6v8.2H-313.2z"/>
</g>
<g>
	<path d="M-205-240c-27.6,0-50,22.4-50,50s22.4,50,50,50s50-22.4,50-50S-177.4-240-205-240z M-201.4-174.2c-3.6,4.6-9,6.8-14.7,7
		c-2.6,0.1-5.1-0.3-7.6-1.1c-7.1-2.3-12.6-8.9-13.7-16.3c-0.1-1-0.2-2.1-0.2-3.2c-0.4-10.6,8.9-20.5,19.5-20.6
		c5.5-0.4,10.8,1.7,14.9,5.1c-1.7,1.9-3.5,3.7-5.2,5.3c-1.1-0.7-2.3-1.3-3.6-1.8c-2.8-1.1-5.7-1.6-8.6-0.6c-6.3,1.8-10.4,9-8.8,15.4
		c0.1,0.4,0.2,0.9,0.4,1.2c0.3,1.2,1,2.3,1.7,3.3c0,0.1,0.1,0.1,0.1,0.2c0.1,0.2,0.3,0.3,0.4,0.6c0.1,0.1,0.2,0.3,0.4,0.4
		c0.1,0.1,0.2,0.1,0.2,0.2c0.2,0.2,0.4,0.4,0.7,0.7c0.1,0,0.1,0.1,0.2,0.1c0.2,0.2,0.6,0.4,0.9,0.7c0.1,0.1,0.1,0.1,0.2,0.1
		c0.3,0.2,0.6,0.3,0.9,0.6c3.5,2,7.7,2.4,11.5,0.8c3.5-1.2,5.7-4.3,6.7-7.8c-3.9-0.1-7.9,0-11.8-0.1c0-2.3,0-4.7,0-7
		c6.6,0,13.1,0,19.7,0c0,0.1,0,0.2,0,0.3C-197-184.7-197.9-178.8-201.4-174.2z M-172.7-184.9c-2,0-3.9,0-5.9,0c0,2,0,3.9,0,5.9
		c-2,0-3.9,0-5.9,0c0-2,0-3.9,0-5.9c-2,0-3.9,0-5.9,0v-5.9c2,0,3.9,0,5.9,0c0-2,0-3.9,0-5.9h5.9c0,2,0,3.9,0,5.9c2,0,3.9,0,5.9,0
		V-184.9z"/>
</g>
<g id="Warstwa_1_1_">
	<g>
		<rect x="-135" y="-240.1" width="100" height="100"/>
	</g>
</g>
<g id="Warstwa_5">
</g>
<g id="Warstwa_5_1_">
</g>
<g id="Warstwa_1_3_">
	<g>
		<g>
			<polygon points="-480.8,-90.8 -439.1,-91 -439.1,-49.1 -454.4,-49 -454.4,-75.5 -481,-75.7 			"/>
		</g>
		<g>
			<rect x="-424.1" y="-91" width="15.3" height="41.9"/>
		</g>
	</g>
</g>
<g id="Warstwa_5_2_">
</g>
<g id="Warstwa_5_3_">
</g>
<g id="Warstwa_5_4_">
</g>
<g>
	<g>
		<rect x="-117" y="-88.6" transform="matrix(0.7071 -0.7071 0.7071 0.7071 29.0437 -91.5484)" width="42" height="15.6"/>
	</g>
	<g>
		<rect x="-95" y="-66.7" transform="matrix(0.7071 -0.7071 0.7071 0.7071 19.9618 -69.6088)" width="42" height="15.6"/>
	</g>
</g>
<g id="Warstwa_1_6_">
	<g>
		<g>
			<polygon points="-364.9,48.7 -335.6,19.1 -306,48.7 -316.7,59.6 -335.4,40.9 -354.4,59.6 			"/>
		</g>
		<g>
			<polygon points="-306,70.2 -295.6,59.6 -285.1,70.4 -295.6,80.9 			"/>
		</g>
	</g>
</g>
<g id="Warstwa_5_5_">
</g>
<g>
	<g>
		<polygon points="-474.4,43 -445.1,13.4 -415.5,43 -426.2,53.9 -444.9,35.2 -463.9,53.9 		"/>
	</g>
	<g>
		<rect x="-465.8" y="66.8" width="41.7" height="16.8"/>
	</g>
</g>
<g id="Warstwa_5_6_">
</g>
<g id="Warstwa_1_8_">
	<g>
		<g>
			<polygon points="-614.4,56.7 -585.3,27.3 -555.9,56.7 -566.5,67.5 -585.1,48.9 -604,67.5 			"/>
		</g>
		<g>
			<polygon points="-562,31 -551.5,20.2 -536.6,35 -547.1,45.6 			"/>
		</g>
		<g>
			<polygon points="-539.9,53.1 -529.4,42.3 -514.4,57.1 -525,67.8 			"/>
		</g>
	</g>
</g>
<g id="Warstwa_5_7_">
</g>
<g id="Warstwa_1_9_">
	<g>
		<g>
			<polygon points="-255,57.3 -225.8,27.8 -196.4,57.3 -207.1,68.1 -225.7,49.5 -244.6,68.1 			"/>
		</g>
		<g>
			<polygon points="-195,38.7 -184.4,27.8 -155,57 -165.8,68.1 			"/>
		</g>
	</g>
</g>
<g id="Warstwa_5_8_">
</g>
<g>
	<g>
		<path d="M-35,132.4c0-2.6-1.6-4.2-4.2-4.2h-91.7c-2.6,0-4.2,1.6-4.2,4.2v8.3c0,2.6,1.6,4.2,4.2,4.2h91.7c2.6,0,4.2-1.6,4.2-4.2
			L-35,132.4z"/>
	</g>
	<g>
		<path d="M-35,165.7c0-2.6-1.6-4.2-4.2-4.2h-91.7c-2.6,0-4.2,1.6-4.2,4.2v8.3c0,2.6,1.6,4.2,4.2,4.2h91.7c2.6,0,4.2-1.6,4.2-4.2
			L-35,165.7z"/>
	</g>
	<g>
		<path d="M-35,199.1c0-2.6-1.6-4.2-4.2-4.2h-91.7c-2.6,0-4.2,1.6-4.2,4.2v8.3c0,2.6,1.6,4.2,4.2,4.2h91.7c2.6,0,4.2-1.6,4.2-4.2
			L-35,199.1z"/>
	</g>
</g>
<g>
	<path d="M-205,120c-27.6,0-50,22.4-50,50s22.4,50,50,50s50-22.4,50-50S-177.4,120-205,120z M-215,192.5v-45l30,22.5L-215,192.5z"/>
</g>
<g>
	<path d="M-302.5,175.6h-16.7V120h-11.1v55.6H-347l22.2,22.2L-302.5,175.6z M-369.2,208.9V220h88.9v-11.1H-369.2z"/>
</g>
<g>
	<path d="M-398.1,211l-23.7-24.8c6.1-7.2,9.4-16.4,9.4-25.9c0-22.1-18.2-40.4-40.4-40.4c-22.1,0-40.4,18.2-40.4,40.4
		s18.2,40.4,40.4,40.4c8.3,0,16.2-2.4,23-7.2l23.9,25c1.1,1.1,2.4,1.5,3.7,1.5c1.3,0,2.6-0.4,3.7-1.5
		C-396.1,216.5-396.1,213.2-398.1,211L-398.1,211z M-452.7,130.5c16.4,0,29.8,13.4,29.8,29.8s-13.4,29.8-29.8,29.8
		c-16.4,0-29.8-13.4-29.8-29.8S-469.2,130.5-452.7,130.5L-452.7,130.5z"/>
</g>
<g>
	<path d="M-85,0c-27.6,0-50,22.4-50,50s22.4,50,50,50s50-22.4,50-50S-57.4,0-85,0z M-71.9,67.7L-85,54.6l-13.1,13.1l-4-4L-85,46.5
		l17.1,17.1L-71.9,67.7z M-71.9,52L-85,38.9L-98.1,52l-4-4L-85,30.8l17.1,17.1L-71.9,52z"/>
</g>
<g>
	<g>
		<path d="M-574.1,181c7.5-3.8,15-7.8,22.5-11.6c-7.5-4-15-7.8-22.5-11.8V181z"/>
	</g>
	<g>
		<path d="M-565,120c-27.6,0-50,22.4-50,50s22.4,50,50,50s50-22.4,50-50S-537.4,120-565,120L-565,120z M-531,186.8
			c-0.9,3.7-4,6.5-7.7,6.9c-8.7,1-17.6,1-26.5,1s-17.6,0-26.5-1c-3.7-0.4-6.8-3.2-7.7-6.9c-1.3-5.4-1.3-11.1-1.3-16.8
			c0-5.5,0-11.4,1.3-16.8c0.9-3.7,4-6.5,7.7-6.9c8.7-1,17.6-1,26.5-1s17.6,0,26.5,1c3.7,0.4,6.8,3.2,7.7,6.9
			c1.3,5.4,1.3,11.3,1.3,16.8S-529.7,181.4-531,186.8L-531,186.8z"/>
	</g>
</g>
<g>
	<path d="M80.9,88.3L42.7,50l38.2-38.3L69.1,0l-50,50l50,50L80.9,88.3z"/>
</g>
<g>
	<g>
		<path d="M-135,254v100h100V254H-135z M-62.3,322.1l-4.7,4.7L-85,308.7l-18.1,18.1l-4.7-4.7l18.1-18.1l-18.1-18.1l4.7-4.7
			l18.1,18.1l18.1-18.1l4.7,4.7L-80.4,304L-62.3,322.1z"/>
	</g>
</g>
<g>
	<g>
		<path d="M-205,269c-18.2,0-33.1,14.8-33.1,33.1c0,7.3,4.7,19.3,14.3,36.6c6.8,12.2,13.5,22.4,13.8,22.9l4.9,7.5l4.9-7.5
			c0.3-0.4,7-10.6,13.8-22.9c9.6-17.3,14.3-29.3,14.3-36.6C-171.9,283.8-186.8,269-205,269L-205,269z M-205,319
			c-9.5,0-17.1-7.7-17.1-17.1c0-9.5,7.7-17.1,17.1-17.1c9.5,0,17.1,7.7,17.1,17.1C-187.9,311.3-195.5,319-205,319L-205,319z
			 M-205,319"/>
	</g>
</g>
<g>
	<path d="M30.9,220l50-50l-50-50l-11.8,11.8L57.3,170l-38.2,38.3L30.9,220z"/>
</g>
<g>
	<path d="M100,323.1l-50-50l-50,50l11.7,11.8L50,296.7l38.3,38.2L100,323.1z"/>
</g>
<g>
	<path d="M221.3,273.1L183,311.3l-38.3-38.2L133,284.9l50,50l50-50L221.3,273.1z"/>
</g>
<g>
	<g>
		<path class="st0" d="M-585.2,754.6c0,0-0.1,0-0.1,0c-0.8-0.1-1.4-0.7-1.3-1.5l1.5-18.9c0.1-1.2-0.2-2.2-1-3l-3.4-3.6
			c-1.3-1.4-1.9-3.2-1.8-5.1l0.4-4.7c0.2-2.7,1.8-5.7,4.7-6.3l2.7-0.6c0.8-0.2,1.5,0.3,1.7,1.1c0.2,0.8-0.3,1.5-1.1,1.7l-2.7,0.6
			c-1.5,0.3-2.3,2.2-2.4,3.8l-0.4,4.7c-0.1,1.2,0.2,2.2,1,3l3.4,3.6c1.3,1.4,1.9,3.2,1.8,5.1l-1.5,18.9
			C-583.9,754.1-584.5,754.6-585.2,754.6z"/>
	</g>
	<g>
		<path class="st0" d="M-571,754.9c-0.7,0-1.4-0.6-1.4-1.3l-1.6-19.1c-0.2-2,0.4-3.7,1.8-5.1l3.4-3.6c0.8-0.8,1.1-1.8,1-3l-0.4-4.7
			c-0.1-1.6-0.9-3.5-2.4-3.8l-2.7-0.6c-0.8-0.2-1.3-0.9-1.1-1.7c0.2-0.8,0.9-1.3,1.7-1.1l2.7,0.6c2.9,0.6,4.4,3.6,4.7,6.3l0.4,4.7
			c0.2,2-0.4,3.8-1.8,5.1l-3.4,3.6c-0.8,0.8-1.1,1.8-1,3l1.6,19.1c0.1,0.8-0.5,1.5-1.3,1.5C-571,754.9-571,754.9-571,754.9z"/>
	</g>
	<g>
		<path class="st0" d="M-569.8,705.2h-2.8c-0.8,0-1.4-0.6-1.4-1.4c0-1.5-0.5-2.7-1.3-3.5c-0.8-0.7-1.8-1.1-2.9-1.1
			c-2.1,0-4.3,1.4-4.3,4.6c0,0.8-0.6,1.4-1.4,1.4s-1.4-0.6-1.4-1.4c0-4.9,3.6-7.5,7.1-7.5c1.8,0,3.6,0.7,4.9,1.9
			c0.8,0.8,1.8,2.1,2.1,4.1h1.5c0.8,0,1.4,0.6,1.4,1.4S-569,705.2-569.8,705.2z"/>
	</g>
	<g>
		<path class="st0" d="M-537.7,754.9c-0.7,0-1.4-0.6-1.4-1.3l-1.6-19.1c-0.2-2,0.4-3.7,1.8-5.1l3.4-3.6c0.8-0.8,1.1-1.8,1-3
			l-0.4-4.7c-0.1-1.6-0.9-3.5-2.4-3.8l-2.7-0.6c-0.8-0.2-1.3-0.9-1.1-1.7c0.2-0.8,0.9-1.3,1.7-1.1l2.7,0.6c2.9,0.6,4.5,3.6,4.7,6.3
			l0.4,4.7c0.2,2-0.4,3.8-1.8,5.1l-3.4,3.6c-0.8,0.8-1.1,1.8-1,3l1.6,19.1c0.1,0.8-0.5,1.5-1.3,1.5
			C-537.6,754.9-537.7,754.9-537.7,754.9z M-551.9,754.6c0,0-0.1,0-0.1,0c-0.8-0.1-1.4-0.7-1.3-1.5l1.5-18.9c0.1-1.2-0.2-2.2-1-3
			l-3.4-3.6c-1.3-1.4-1.9-3.2-1.8-5.1l0.4-4.7c0.2-2.7,1.8-5.7,4.7-6.3l2.7-0.6c0.8-0.2,1.5,0.3,1.7,1.1s-0.3,1.5-1.1,1.7l-2.7,0.6
			c-1.5,0.3-2.3,2.2-2.4,3.8l-0.4,4.7c-0.1,1.2,0.2,2.2,1,3l3.4,3.6c1.3,1.4,1.9,3.2,1.8,5.1l-1.5,18.9
			C-550.5,754.1-551.2,754.6-551.9,754.6z M-536.5,705.2h-2.8c-0.8,0-1.4-0.6-1.4-1.4c0-1.5-0.5-2.7-1.3-3.5
			c-0.8-0.7-1.8-1.1-2.9-1.1c-2.1,0-4.3,1.4-4.3,4.6c0,0.8-0.6,1.4-1.4,1.4s-1.4-0.6-1.4-1.4c0-4.9,3.6-7.5,7.1-7.5
			c1.8,0,3.6,0.7,4.9,1.9c0.8,0.8,1.8,2.1,2.1,4.1h1.5c0.8,0,1.4,0.6,1.4,1.4S-535.7,705.2-536.5,705.2z"/>
	</g>
</g>
<g>
	<g>
		<path class="st0" d="M-562.2,898.1L-562.2,898.1L-562.2,898.1C-562.2,898.1-562.2,898.1-562.2,898.1L-562.2,898.1
			C-562.2,898.1-562.2,898.1-562.2,898.1L-562.2,898.1c-0.1,0-0.2,0-0.3,0c0,0,0,0,0,0s0,0,0,0c-0.1,0-0.2-0.1-0.2-0.1l-25-12.5
			c-0.4-0.2-0.7-0.6-0.7-1.1v-17.5c0-0.2,0.1-0.5,0.2-0.7l12.5-18.7c0.3-0.5,1-0.7,1.6-0.4l25,12.5c0,0,0,0,0,0l12.5,6.2
			c0.4,0.2,0.7,0.6,0.7,1.1v17.5c0,0.5-0.3,0.9-0.7,1.1l-25,12.5c-0.1,0-0.2,0.1-0.2,0.1h0c0,0,0,0,0,0c0,0,0,0,0,0c0,0,0,0,0,0
			C-562,898.1-562.1,898.1-562.2,898.1L-562.2,898.1C-562.2,898.1-562.2,898.1-562.2,898.1L-562.2,898.1
			C-562.2,898.1-562.2,898.1-562.2,898.1z M-560.9,879.8v15.1l22.5-11.2v-15.9l-10.8-5.4L-560.9,879.8z M-585.9,883.6l22.5,11.2
			v-15.5c0-0.2,0.1-0.5,0.2-0.7l11.7-17.6l-22.7-11.4l-11.7,17.5V883.6z"/>
	</g>
	<g>
		<path class="st0" d="M-562.2,898.1c-0.2,0-0.4,0-0.6-0.1l-25-12.5c-0.4-0.2-0.7-0.6-0.7-1.1v-17.5c0-0.5,0.3-0.9,0.7-1.1l12.5-6.2
			c0,0,0,0,0,0l25-12.5c0.6-0.3,1.2-0.1,1.6,0.4l12.5,18.7c0.3,0.5,0.3,1.1-0.1,1.5c-0.4,0.4-1,0.5-1.5,0.3l-11.5-5.8l-11.7,17.5
			v17.1c0,0.4-0.2,0.8-0.6,1.1C-561.7,898.1-561.9,898.1-562.2,898.1z M-585.9,883.6l22.5,11.2v-15.1l-11.7-17.5l-10.8,5.4V883.6z
			 M-572.8,861.2l10.7,16l11.5-17.2c0.3-0.5,1-0.7,1.6-0.4l8.3,4.1l-9.3-13.9L-572.8,861.2z"/>
	</g>
	<g>
		<rect x="-574.9" y="849.2" class="st0" width="0.3" height="11.4"/>
	</g>
	<g>
		<rect x="-578.4" y="855.2" class="st0" width="0.3" height="7.5"/>
	</g>
	<g>
		<rect x="-582" y="860.8" class="st0" width="0.3" height="3.7"/>
	</g>
	<g>
		<rect x="-571.3" y="849.7" class="st0" width="0.4" height="14.2"/>
	</g>
	<g>
		<rect x="-567.9" y="850.9" class="st0" width="0.5" height="18.6"/>
	</g>
	<g>
		<rect x="-564.3" y="852.7" class="st0" width="0.5" height="22"/>
	</g>
	<g>
		<rect x="-560.8" y="854.5" class="st0" width="0.6" height="22.5"/>
	</g>
	<g>
		<rect x="-557.4" y="852" class="st0" width="0.8" height="19.4"/>
	</g>
	<g>
		<rect x="-554.1" y="850" class="st0" width="1.3" height="16.3"/>
	</g>
	<g>
		<rect x="-550.1" y="847.4" class="st0" width="0.5" height="12.7"/>
	</g>
	<g>
		<rect x="-546.5" y="853" class="st0" width="0.4" height="9.5"/>
	</g>
	<g>
		<rect x="-543" y="858.1" class="st0" width="0.5" height="5.8"/>
	</g>
</g>
<g>
	<g>
		<path class="st0" d="M-401.3,900.4c0,0-0.1,0-0.1,0c-0.8-0.1-1.4-0.7-1.3-1.5l1.5-18.9c0.1-1.2-0.2-2.2-1-3l-3.4-3.6
			c-1.3-1.4-1.9-3.2-1.8-5.1l0.4-4.7c0.2-2.7,1.8-5.7,4.7-6.3l2.7-0.6c0.8-0.2,1.5,0.3,1.7,1.1c0.2,0.8-0.3,1.5-1.1,1.7l-2.7,0.6
			c-1.5,0.3-2.3,2.2-2.4,3.8l-0.4,4.7c-0.1,1.2,0.2,2.2,1,3l3.4,3.6c1.3,1.4,1.9,3.2,1.8,5.1l-1.5,18.9
			C-399.9,899.9-400.5,900.4-401.3,900.4z"/>
	</g>
	<g>
		<path class="st0" d="M-387.1,900.7c-0.7,0-1.4-0.6-1.4-1.3l-1.6-19.1c-0.2-2,0.4-3.8,1.8-5.1l3.4-3.6c0.8-0.8,1.1-1.8,1-3
			l-0.4-4.7c-0.1-1.6-0.9-3.5-2.4-3.8l-2.7-0.6c-0.8-0.2-1.3-0.9-1.1-1.7c0.2-0.8,0.9-1.3,1.7-1.1l2.7,0.6c2.9,0.6,4.4,3.6,4.7,6.3
			l0.4,4.7c0.2,2-0.4,3.7-1.8,5.1l-3.4,3.6c-0.8,0.8-1.1,1.8-1,3l1.6,19.1c0.1,0.8-0.5,1.5-1.3,1.5
			C-387,900.7-387.1,900.7-387.1,900.7z"/>
	</g>
	<g>
		<path class="st0" d="M-388.7,851c-0.8,0-1.4-0.6-1.4-1.4c0-1.5-0.5-2.7-1.3-3.5c-0.8-0.7-1.8-1.1-2.9-1.1c-2.1,0-4.3,1.4-4.3,4.6
			c0,0.8-0.6,1.4-1.4,1.4s-1.4-0.6-1.4-1.4c0-4.9,3.6-7.4,7.1-7.4c1.8,0,3.6,0.7,4.9,1.9c1,1,2.2,2.7,2.2,5.6
			C-387.3,850.4-387.9,851-388.7,851z"/>
	</g>
	<g>
		<path class="st0" d="M-369.6,900.4c0,0-0.1,0-0.1,0c-0.8-0.1-1.4-0.7-1.3-1.5l1.2-14.2c0.1-0.8,0.7-1.4,1.5-1.3
			c0.8,0.1,1.4,0.7,1.3,1.5l-1.2,14.2C-368.2,899.9-368.9,900.4-369.6,900.4z"/>
	</g>
	<g>
		<path class="st0" d="M-361.1,900.7c-0.7,0-1.4-0.6-1.4-1.3l-1.2-14.3c-0.1-0.8,0.5-1.5,1.3-1.5c0.8-0.1,1.5,0.5,1.5,1.3l1.2,14.3
			c0.1,0.8-0.5,1.5-1.3,1.5C-361,900.7-361,900.7-361.1,900.7z"/>
	</g>
	<g>
		<path class="st0" d="M-356.2,886.3c-0.5,0-0.9-0.2-1.2-0.6l-3.2-4.8c-0.1-0.2-0.3-0.4-0.5-0.7c-0.9-1.3-2.5-3.4-0.8-5.1l3.4-3.6
			c0.8-0.8,1.1-1.8,1-3l-0.4-4.7c-0.1-1.6-0.9-3.5-2.4-3.8c-0.8-0.2-1.3-0.9-1.1-1.7c0.2-0.8,0.9-1.3,1.7-1.1
			c2.9,0.6,4.5,3.6,4.7,6.3l0.4,4.7c0.2,2-0.4,3.7-1.8,5.1l-3.3,3.5c0.1,0.4,0.7,1.1,1,1.6c0.2,0.3,0.4,0.5,0.6,0.8l3.2,4.8
			c0.4,0.6,0.3,1.5-0.4,2C-355.7,886.3-356,886.3-356.2,886.3z M-373.7,886.3c-0.3,0-0.6-0.1-0.8-0.2c-0.6-0.4-0.8-1.3-0.4-2
			l3.2-4.7c0.2-0.2,0.4-0.5,0.5-0.7c0.3-0.4,0.9-1.2,1-1.6l-3.3-3.5c-1.3-1.4-1.9-3.2-1.8-5.1l0.4-4.7c0.2-2.7,1.8-5.7,4.7-6.3
			c0.8-0.2,1.5,0.3,1.7,1.1s-0.3,1.5-1.1,1.7c-1.5,0.3-2.3,2.2-2.4,3.8l-0.4,4.7c-0.1,1.2,0.2,2.2,1,3l3.4,3.6
			c1.7,1.8,0.1,3.9-0.8,5.2c-0.2,0.2-0.3,0.4-0.5,0.7l-3.2,4.7C-372.8,886.1-373.3,886.3-373.7,886.3z M-360.9,853.8
			c-0.8,0-1.4-0.6-1.4-1.4c0-1-0.3-1.8-0.9-2.4c-1.5-1.4-4.8-0.9-4.8,2.4c0,0.8-0.6,1.4-1.4,1.4s-1.4-0.6-1.4-1.4
			c0-3.9,2.9-5.9,5.7-5.9c1.5,0,2.9,0.5,3.9,1.5c0.8,0.8,1.8,2.2,1.8,4.4C-359.5,853.2-360.1,853.8-360.9,853.8z"/>
	</g>
</g>
<g>
	<g>
		<path class="st0" d="M-357.2,742.3C-357.2,742.3-357.2,742.3-357.2,742.3l-25.2,0c-0.1,0-0.2,0-0.2,0l-10.5,0c0,0,0,0,0,0l-10.5,0
			c-0.5,0-1-0.3-1.3-0.8c-0.2-0.5-0.2-1.1,0.1-1.5l6.3-8.4c0,0,0,0,0,0l6.3-8.4c0.3-0.4,0.7-0.6,1.1-0.6c0,0,0,0,0,0l21.1,0
			c0.4,0,0.9,0.2,1.1,0.6l12.6,16.9c0.3,0.4,0.4,1,0.1,1.5C-356.2,742-356.7,742.3-357.2,742.3z M-379.7,739.4l19.6,0l-9.8-13.1
			l-5.2,6.9c0,0,0,0,0,0L-379.7,739.4z M-390.3,739.4l7,0l4.2-5.6l-7,0L-390.3,739.4z M-400.8,739.4l7,0l4.2-5.6l-7,0L-400.8,739.4z
			 M-383.9,731l7,0l4.2-5.6l-7,0L-383.9,731z M-394.5,731l7,0l4.2-5.6l-7,0L-394.5,731z"/>
	</g>
	<g>
		<path class="st0" d="M-346.3,725.3h-11.3c-0.8,0-1.4-0.6-1.4-1.4c0-7.1-2.3-13-6.6-17.1c-3.8-3.6-9-5.6-14.6-5.6
			c-10.3,0-21.3,7.1-21.3,22.7c0,0.8-0.6,1.4-1.4,1.4s-1.4-0.6-1.4-1.4c0-16.8,12.1-25.5,24.1-25.5c6.3,0,12.2,2.3,16.5,6.4
			c4.6,4.4,7.2,10.5,7.5,17.7h9.9c0.8,0,1.4,0.6,1.4,1.4S-345.6,725.3-346.3,725.3z"/>
	</g>
</g>
<g>
	<g>
		<path class="st0" d="M-586.2,570.6c-0.7,0-1.2-0.5-1.2-1.2v-17.8c0-0.7,0.5-1.2,1.2-1.2s1.2,0.5,1.2,1.2v17.8
			C-585,570-585.5,570.6-586.2,570.6z"/>
	</g>
	<g>
		<path class="st0" d="M-562.5,594.3c-0.2,0-0.4,0-0.5-0.1l-23.7-11.9c-0.6-0.3-0.8-1-0.5-1.6c0.3-0.6,1-0.8,1.6-0.5l23.2,11.6
			l23.2-11.6c0.6-0.3,1.3-0.1,1.6,0.5c0.3,0.6,0.1,1.3-0.5,1.6l-23.7,11.9C-562.1,594.2-562.3,594.3-562.5,594.3z"/>
	</g>
	<g>
		<path class="st0" d="M-562.5,564.6c-0.2,0-0.4,0-0.5-0.1l-23.7-11.8c-0.4-0.2-0.7-0.6-0.7-1.1s0.3-0.9,0.7-1.1l23.7-11.9
			c0.3-0.2,0.7-0.2,1.1,0l23.7,11.9c0.4,0.2,0.7,0.6,0.7,1.1s-0.3,0.9-0.7,1.1l-23.7,11.8C-562.1,564.6-562.3,564.6-562.5,564.6z
			 M-583.5,551.6l21.1,10.5l21.1-10.5l-21.1-10.5L-583.5,551.6z"/>
	</g>
	<g>
		<path class="st0" d="M-562.5,582.4c-0.7,0-1.2-0.5-1.2-1.2v-17.8c0-0.7,0.5-1.2,1.2-1.2s1.2,0.5,1.2,1.2v17.8
			C-561.3,581.9-561.8,582.4-562.5,582.4z M-538.8,570.6c-0.7,0-1.2-0.5-1.2-1.2v-17.8c0-0.7,0.5-1.2,1.2-1.2s1.2,0.5,1.2,1.2v17.8
			C-537.6,570-538.1,570.6-538.8,570.6z"/>
	</g>
</g>
<g>
	<g>
		<path d="M-247.7,551.1c-7.5,0-13.7,6.4-13.7,14.3c0,7.9,6.1,14.4,13.7,14.4c7.5,0,13.7-6.4,13.7-14.4
			C-234,557.5-240.1,551.1-247.7,551.1L-247.7,551.1z M-247.7,551.1"/>
	</g>
	<g>
		<path d="M-247.7,588.1c-12.1,0-22-10.2-22-22.7s9.9-22.7,22-22.7c12.1,0,22,10.2,22,22.7S-235.5,588.1-247.7,588.1L-247.7,588.1z
			 M-197.4,563.2c-13-20.9-30.6-32.4-49.4-32.4c-18.8,0-36.4,11.5-49.4,32.4c-0.8,1.3-0.8,3.1,0,4.4c13,20.9,30.6,32.4,49.4,32.4
			c18.8,0,36.3-11.5,49.4-32.4C-196.6,566.3-196.6,564.6-197.4,563.2L-197.4,563.2z M-197.4,563.2"/>
	</g>
	<g>
		<rect x="-296.8" y="530.7" class="st1" width="100" height="69.6"/>
	</g>
</g>
<g>
	<g>
		<path class="st2" d="M343.3,16.9c5.3,0,9.6,4.3,9.6,9.6c0,5.3-4.3,9.6-9.6,9.6c-5.3,0-9.6-4.3-9.6-9.6
			C333.6,21.2,338,16.9,343.3,16.9 M287.1,26.5h19.3l46.6,46.6h-19.3l-16.4-16.4l0,16.4h-13.6l0-30.1L287.1,26.5z"/>
	</g>
</g>
<g>
	<path class="st2" d="M90.6-89.3l0,38.6H76.9l0-38.6H90.6z M38.4-89.3l28.9,28.9l-9.6,9.6L38.4-70L19.1-50.7l-9.6-9.6L38.4-89.3z"/>
</g>
<g>
	<path class="st2" d="M303.5-93.9l-19.3,19.3l9.6,9.6l19.3-19.3L303.5-93.9z M336.5-93.9l19.3,19.3l-9.6,9.6l-19.3-19.3L336.5-93.9z
		 M294.9-56.1c-2.1,0-3.8,1.7-3.8,3.8v16.9c0,2.1,1.7,3.8,3.8,3.8h50.1c2.1,0,3.8-1.7,3.8-3.8v-16.9c0-2.1-1.7-3.8-3.8-3.8H294.9z
		 M335.9-40.2h-2.5v-7.5h2.5c2.4,0,4.2,1.1,4.2,3.7C340.1-41.4,338.3-40.2,335.9-40.2z M317.7-43.9c0-5.1,8.5-5.1,8.5,0
		C326.2-38.8,317.7-38.8,317.7-43.9z M315.4-43.9c0,7.9,13.2,7.9,13.2,0C328.5-51.8,315.4-51.8,315.4-43.9z M299.8-49.7v11.5
		c1.3,0,2.3-1,2.3-2.3v-6l4.2,4l4.2-4v8.3c1.3,0,2.3-1,2.3-2.3v-9.2c-2.3,0-3.2,0.9-4.1,1.7l-2.4,2.4l-2.7-2.7
		C302.8-49,302.1-49.7,299.8-49.7z M331.1-49.7v11.5l4.2,0c3.8,0,7.2-1.6,7.2-5.8c0-4.3-3.4-5.7-7.2-5.7H331.1z M294.9-58.2h50.1
		c3.2,0,5.9,2.6,5.9,5.8v16.9c0,3.2-2.6,5.8-5.9,5.8h-50.1c-3.2,0-5.9-2.6-5.9-5.8v-16.9C289.1-55.6,291.7-58.2,294.9-58.2z
		 M320-110.4l9.6,9.6l-9.6,9.6l-9.6-9.6L320-110.4z"/>
</g>
<g>
	<path class="st2" d="M-197.5-50.1v-36.8h-14.7v36.8H-197.5z M-168-53.8l0-29.5h-14.7l0,29.5H-168z M-226.9-46.4v-44.2h-14.7v44.2
		H-226.9z"/>
</g>
<g>
	<polygon class="st2" points="-355.9,-47 -355.9,-62.7 -332.4,-62.7 -332.4,-94 -316.8,-94 -316.8,-62.7 -293.3,-62.7 -293.3,-47 	
		"/>
</g>
<g>
	<polygon class="st2" points="470.5,-42.7 470.5,-56.4 456.8,-56.4 456.8,-97.3 429.5,-97.3 429.5,-83.6 443.2,-83.6 443.2,-42.7 	
		"/>
</g>
<g>
	<path class="st2" d="M-543.5-73.8h15.2v38h-15.2V-73.8z M-601.7-89v-15.2h43V-89H-601.7z M-558.7-73.8v38h-15.2v-22.8h-27.8v-15.2
		H-558.7z"/>
</g>
<g>
	<path class="st2" d="M436.4,14.3V62h40.9v13.6c-18.2,0-36.4,0-54.5,0V14.3H436.4z M477.3,14.3v34.1h-13.6V28H450V14.3H477.3z"/>
</g>
<g>
	<path class="st2" d="M173.4-92.7l9.6-9.6l9.6,9.6l-9.6,9.6L173.4-92.7z M183-76.2l28.9,28.9l-9.6,9.6L183-56.9l-19.3,19.3l-9.6-9.6
		L183-76.2z"/>
</g>
</svg>
