<svg xmlns="http://www.w3.org/2000/svg" width="39.781" height="39.814"><path data-name="Path 434" d="M39.593 18.97l-3.122-3.949.48-5.012a.738.738 0 00-.458-.738l-4.68-1.911-2.1-4.576a.738.738 0 00-.775-.421L23.96 3.1 19.86.148a.738.738 0 00-.886 0l-3.949 3.2-5.012-.48a.738.738 0 00-.738.465L7.36 8.002l-4.576 2.1a.738.738 0 00-.421.775L3.1 15.86l-2.952 4.1a.738.738 0 000 .886l3.122 3.949-.48 5.012a.738.738 0 00.458.738l4.754 1.915 2.1 4.576a.738.738 0 00.775.421l4.982-.738 4.1 2.952a.738.738 0 00.886 0l3.949-3.122 5.012.48a.738.738 0 00.738-.458l1.916-4.758 4.576-2.1a.738.738 0 00.421-.775l-.742-4.978 2.952-4.1a.738.738 0 00-.074-.886zM26.76 29.82a.369.369 0 01-.305.423.374.374 0 01-.056 0 .362.362 0 01-.17-.044l-6.322-3.309-6.311 3.351a.369.369 0 01-.539-.391l1.2-7.027-5.108-4.975a.369.369 0 01.207-.627l7.056-1.026 3.159-6.392a.384.384 0 01.664 0l3.159 6.392 7.066 1.026a.369.369 0 01.207.627l-5.108 4.975z" fill="#fff"/></svg>