<svg xmlns="http://www.w3.org/2000/svg" width="102.421" height="85.82"><g data-name="Group 639"><g data-name="Group 118"><g data-name="Group 107" fill="#0f1b2f"><path data-name="Path 275" d="M24.495 17.804a1.816 1.816 0 011.122.381l-.184.361a1.437 1.437 0 00-.952-.343c-.856 0-1.427.723-1.427 1.89 0 1.2.622 1.916 1.389 1.916a1.131 1.131 0 00.964-.47v-.945h-.571v-.387h.964v2.131h-.362v-.2a1.56 1.56 0 01.013-.177h-.013a1.373 1.373 0 01-1.046.45c-.945 0-1.776-.862-1.776-2.309.001-1.41.763-2.298 1.879-2.298z"/><path data-name="Path 276" d="M26.525 19.148h.406v.489a2.32 2.32 0 01-.013.248h.013c.108-.419.425-.767.773-.767a.469.469 0 01.134.019v.418a.618.618 0 00-.134-.012c-.539 0-.767.818-.767 1.415v1.382h-.412z"/><path data-name="Path 277" d="M29.336 19.073c.768 0 1.06.7 1.06 1.421 0 .083-.007.165-.013.266h-1.84c.013.862.406 1.275.9 1.275a1.067 1.067 0 00.773-.33l.121.336a1.337 1.337 0 01-.932.374c-.806 0-1.288-.685-1.288-1.7.001-.995.477-1.642 1.219-1.642zm.641 1.351c-.006-.679-.235-.99-.647-.99s-.711.349-.787.99z"/><path data-name="Path 278" d="M32.108 19.073c.768 0 1.059.7 1.059 1.421 0 .083-.006.165-.012.266h-1.84c.013.862.406 1.275.9 1.275a1.067 1.067 0 00.773-.33l.121.336a1.337 1.337 0 01-.932.374c-.806 0-1.288-.685-1.288-1.7.001-.995.477-1.642 1.219-1.642zm.641 1.351c-.006-.679-.235-.99-.647-.99s-.711.349-.787.99z"/><path data-name="Path 279" d="M33.821 19.149h.406v.323a.956.956 0 01-.019.2h.013a1.024 1.024 0 01.97-.6c.59 0 .824.393.824 1.015v2.251h-.418v-2.162c0-.349-.057-.711-.5-.711a.948.948 0 00-.863 1v1.871h-.412z"/><path data-name="Path 280" d="M38.56 17.804a1.621 1.621 0 011.053.362l-.184.368a1.374 1.374 0 00-.875-.33c-.907 0-1.44.812-1.44 1.871s.545 1.941 1.427 1.941a1.586 1.586 0 00.983-.362l.165.362a1.775 1.775 0 01-1.16.4c-1.155 0-1.853-1.021-1.853-2.328s.704-2.284 1.884-2.284z"/><path data-name="Path 281" d="M41.37 19.073c.793 0 1.313.71 1.313 1.661s-.52 1.681-1.319 1.681-1.313-.723-1.313-1.681.526-1.661 1.319-1.661zm-.006 2.968c.558 0 .894-.558.894-1.313s-.336-1.281-.894-1.281-.888.533-.888 1.281.336 1.313.888 1.313z"/><path data-name="Path 282" d="M44.575 20.379h.165v-.1c0-.653-.228-.843-.577-.843a1.341 1.341 0 00-.717.234l-.127-.33a1.505 1.505 0 01.869-.273c.647 0 .964.406.964 1.224v2.042h-.381v-.279a2.707 2.707 0 01.013-.273h-.013a.928.928 0 01-.818.6.836.836 0 01-.824-.938c0-.994.957-1.064 1.446-1.064zm-.545 1.656c.476 0 .71-.622.71-1.059v-.266h-.159c-.367 0-1.053.031-1.053.71a.548.548 0 00.502.615z"/><path data-name="Path 283" d="M46.015 19.535h-.323v-.361h.33v-.907h.406v.907h.6v.361h-.6v1.6c0 .742.33.844.539.844a.337.337 0 00.108-.012v.38a.787.787 0 01-.158.013c-.3 0-.9-.121-.9-1.187z"/><path data-name="Path 284" d="M48.933 17.88h1.084a1.357 1.357 0 010 2.708h-.659v1.75h-.425zm1.027 2.327a.977.977 0 000-1.947h-.6v1.947z"/><path data-name="Path 285" d="M51.839 19.148h.412v2.157c0 .355.057.716.507.716a.945.945 0 00.837-1v-1.878h.412v3.19h-.406v-.323a1.062 1.062 0 01.019-.2h-.013a1 1 0 01-.945.6c-.6 0-.825-.4-.825-1.015z"/><path data-name="Path 286" d="M54.833 19.148h.406v.489a2.319 2.319 0 01-.013.248h.013c.108-.419.425-.767.773-.767a.469.469 0 01.134.019v.418a.618.618 0 00-.134-.012c-.539 0-.767.818-.767 1.415v1.382h-.412z"/><path data-name="Path 287" d="M57.885 20.379h.165v-.1c0-.653-.228-.843-.577-.843a1.341 1.341 0 00-.717.234l-.127-.33a1.5 1.5 0 01.869-.273c.647 0 .964.406.964 1.224v2.042h-.38v-.279c0-.159.012-.273.012-.273h-.012a.929.929 0 01-.818.6.836.836 0 01-.824-.938c-.001-.994.956-1.064 1.445-1.064zm-.545 1.656c.476 0 .71-.622.71-1.059v-.266h-.158c-.368 0-1.053.031-1.053.71a.548.548 0 00.501.615z"/><path data-name="Path 288" d="M59.261 17.88h.419v3.609c0 .431.127.495.273.495a.34.34 0 00.083-.006v.374a.8.8 0 01-.146.013c-.241 0-.628-.083-.628-.781z"/><path data-name="Path 289" d="M61.926 17.88h1.056a1.056 1.056 0 011.123 1.116 1.1 1.1 0 01-.52.977v.013a1.115 1.115 0 01.659 1.123 1.152 1.152 0 01-1.294 1.23h-1.027zm1.135 1.935c.33 0 .609-.311.609-.787a.691.691 0 00-.7-.767h-.615v1.554zm-.127 2.137a.773.773 0 00.875-.856c0-.577-.317-.907-.7-.907h-.755v1.763z"/><path data-name="Path 290" d="M65.606 18.261h-1.205v-.381h2.835v.381h-1.212v4.078h-.418z"/><path data-name="Path 291" d="M67.509 21.812h.431l-.387 1.142h-.343z"/><path data-name="Path 292" d="M70.025 19.149h.406v.323a.98.98 0 01-.019.2h.013a.958.958 0 01.913-.6.688.688 0 01.717.6h.019a.981.981 0 01.926-.6c.545 0 .767.393.767 1.015v2.251h-.418v-2.156c0-.355-.063-.717-.463-.717a.894.894 0 00-.787.977v1.9h-.412v-2.156c0-.362-.07-.717-.463-.717a.905.905 0 00-.786 1v1.877h-.413z"/><path data-name="Path 293" d="M75.801 20.379h.165v-.1c0-.653-.228-.843-.577-.843a1.341 1.341 0 00-.717.234l-.127-.33a1.5 1.5 0 01.869-.273c.647 0 .964.406.964 1.224v2.042h-.38v-.279c0-.159.012-.273.012-.273h-.012a.929.929 0 01-.818.6.836.836 0 01-.824-.938c-.001-.994.957-1.064 1.445-1.064zm-.545 1.656c.476 0 .711-.622.711-1.059v-.266h-.159c-.368 0-1.053.031-1.053.71a.548.548 0 00.501.615z"/><path data-name="Path 294" d="M77.241 19.535h-.323v-.361h.33v-.907h.406v.907h.6v.361h-.6v1.6c0 .742.33.844.539.844a.339.339 0 00.108-.012v.38a.8.8 0 01-.159.013c-.3 0-.9-.121-.9-1.187z"/><path data-name="Path 295" d="M78.897 19.535h-.323v-.361h.33v-.907h.406v.907h.6v.361h-.6v1.6c0 .742.329.844.539.844a.341.341 0 00.108-.012v.38a.8.8 0 01-.159.013c-.3 0-.9-.121-.9-1.187z"/></g><g data-name="Group 117"><g data-name="Group 110"><g data-name="Group 108"><path data-name="Path 296" d="M102.411 3.577l-.013.1a.9.9 0 01-.9.776h-1.424a.9.9 0 00-.9.777l-.924 6.466a.9.9 0 01-.9.777h-.406a.9.9 0 01-.9-1.033l.852-5.953a.905.905 0 00-.9-1.033h-.906a.9.9 0 01-.9-1.033l.013-.1a.9.9 0 01.9-.776h6.416a.9.9 0 01.9 1.033zm-9.08 0l-.013.1a.9.9 0 01-.9.776h-1.424a.9.9 0 00-.9.777l-.925 6.466a.9.9 0 01-.9.777h-.406a.905.905 0 01-.9-1.033l.851-5.953a.9.9 0 00-.9-1.033h-.906a.905.905 0 01-.9-1.033l.014-.1a.9.9 0 01.9-.776h6.392a.9.9 0 01.9 1.033zM80.046 6.924l-.155.3a.9.9 0 00.8 1.323h.222a.906.906 0 00.884-1.1 7.893 7.893 0 01-.029-.131c-.013-.058-.027-.115-.038-.17a.905.905 0 00-1.686-.219zm2.559 4.815q-.032-.163-.067-.33l-.078-.368a.9.9 0 00-.886-.72h-2.562a.886.886 0 00-.812.506q-.142.292-.288.582t-.264.542a.886.886 0 01-.818.517h-.283a.9.9 0 01-.809-1.309q.433-.867.835-1.654.7-1.361 1.347-2.564t1.272-2.284q.492-.857 1-1.683a.884.884 0 01.771-.43h.973a.893.893 0 01.862.63q.231.729.454 1.482.317 1.08.625 2.284t.614 2.564q.2.884.409 1.872a.905.905 0 01-.886 1.091h-.523a.9.9 0 01-.887-.729zm-14.934-8.6q.1.263.2.571.237.694.486 1.5.177.571.346 1.16a.9.9 0 001.655.2c.263-.46.527-.914.791-1.358q.481-.809.917-1.5c.177-.281.339-.534.488-.76a.882.882 0 01.756-.407h.637a.906.906 0 01.906.924q-.014.608-.043 1.289-.053 1.225-.15 2.55t-.208 2.656c-.049.583-.1 1.145-.146 1.682a.9.9 0 01-.9.823h-.34a.9.9 0 01-.9-1q.078-.712.156-1.481a.905.905 0 00-1.687-.54l-.357.626c-.142.247-.273.474-.39.682a.885.885 0 01-.786.457h-.351a.893.893 0 01-.869-.657l-.138-.481-.177-.619a.905.905 0 00-1.761.082q-.213 1.153-.395 2.188a.9.9 0 01-.891.747h-.318a.9.9 0 01-.888-1.079c.09-.459.186-.934.285-1.427q.269-1.331.552-2.656t.579-2.55q.2-.826.4-1.545a.894.894 0 01.873-.668h.824a.892.892 0 01.851.6z" fill="#0f1b2f"/></g><g data-name="Group 109"><path data-name="Path 297" d="M60.595 6.314h1.239a.9.9 0 01.513 1.651 1.747 1.747 0 01-1.014.282h-1.24a.9.9 0 01-.512-1.65 1.742 1.742 0 011.014-.283z" fill="#0f1b2f"/></g></g><g data-name="Group 116"><g data-name="Group 111"><path data-name="Path 298" d="M3.206.171h1.526a.9.9 0 01.885 1.054L3.309 14.312a.9.9 0 01-.885.743H.898A.9.9 0 01.013 14L2.321.913a.9.9 0 01.885-.742z" fill="#0f1b2f"/></g><g data-name="Group 112"><path data-name="Path 299" d="M20.966 7.603a9.922 9.922 0 01-1.2 3.372 8.056 8.056 0 01-2.128 2.384 9.007 9.007 0 01-2.945 1.418 13.41 13.41 0 01-3.649.472q-.9 0-2.092-.075-.707-.045-1.389-.146a.9.9 0 01-.763-1.05L9.089.996a.894.894 0 01.743-.734q.9-.132 1.836-.188Q12.938 0 13.84-.001a12.227 12.227 0 013.393.429 5.726 5.726 0 012.436 1.354 4.769 4.769 0 011.3 2.363 8.546 8.546 0 01-.003 3.458zm-10.52 4.724q.233.023.542.033t.739.01a5.763 5.763 0 003.95-1.267 5.845 5.845 0 001.831-3.5 4.363 4.363 0 00-.535-3.544q-.948-1.2-3.461-1.2-.343 0-.711.011a7.261 7.261 0 00-.7.054z" fill="#0f1b2f"/></g><g data-name="Group 113"><path data-name="Path 300" d="M22.63 14L24.938.913a.9.9 0 01.885-.742h8.227a.9.9 0 01.885 1.054l-.179 1.017a.9.9 0 01-.885.742h-5.195a.9.9 0 00-.885.743l-.2 1.124a.9.9 0 00.885 1.055h3.808a.9.9 0 01.885 1.054l-.168.952a.9.9 0 01-.885.742h-4.439a.9.9 0 00-.885.742l-.316 1.79a.9.9 0 00.885 1.055h5.054a.9.9 0 01.885 1.054l-.179 1.017a.9.9 0 01-.885.743h-8.721A.9.9 0 0122.63 14z" fill="#0f1b2f"/></g><g data-name="Group 114"><path data-name="Path 301" d="M46.217 15.055a.9.9 0 01-.888-.763q-.065-.409-.138-.83l-.153-.885a.9.9 0 00-.885-.744H39.64a.9.9 0 00-.8.482l-.6 1.151q-.292.559-.562 1.1a.893.893 0 01-.8.493h-1.432a.9.9 0 01-.792-1.323q.879-1.656 1.679-3.123 1.114-2.041 2.154-3.845t2.026-3.425Q41.37 1.934 42.259.58a.9.9 0 01.755-.405h2.014a.9.9 0 01.865.644q.36 1.238.7 2.524.425 1.621.831 3.425t.8 3.845q.308 1.585.628 3.39a.9.9 0 01-.885 1.056zM43.449 3.543q-.169.324-.484.882t-.719 1.29q-.4.732-.9 1.611l-.282.5a.9.9 0 00.783 1.341h1.664a.9.9 0 00.883-1.063l-.145-.787q-.165-.882-.324-1.614t-.278-1.289q-.119-.555-.198-.871z" fill="#0f1b2f"/></g><g data-name="Group 115"><path data-name="Path 302" d="M61.211 13.231l-.191 1.081a.9.9 0 01-.885.743h-8.12A.9.9 0 0151.13 14L53.438.913a.9.9 0 01.885-.742h1.526a.9.9 0 01.885 1.054l-1.745 9.9a.9.9 0 00.885 1.054h4.452a.9.9 0 01.885 1.052z" fill="#0f1b2f"/></g></g></g></g><g data-name="Group 242"><g data-name="Group 238"><text data-name="LAT GWARANCJI" transform="translate(48.526 73.819)" fill="#0f1b2f" font-size="9" font-family="SegoeUI, Segoe UI"><tspan x="-7.187" y="0">LAT</tspan><tspan x="-24.48" y="10">GWARANCJI</tspan></text><g data-name="Group 237"><path data-name="Path 352" d="M38.649 62.224h22.208v.468h-22.21v-.468z" fill="#0f1b2f" fill-rule="evenodd"/></g></g><text data-name="55" transform="translate(48.526 52.14)" fill="#0f1b2f" font-size="20" font-family="MuseoSans-100, 'Museo Sans \31 00'" font-weight="100"><tspan x="-11.08" y="0">55</tspan></text></g><text transform="translate(25.22 67.479)" fill="#42454a" font-size="9" font-family="MuseoSans-300, 'Museo Sans \33 00'" font-weight="300"><tspan x="-5.449" y="0">do</tspan></text></g></svg>