<svg xmlns="http://www.w3.org/2000/svg" width="56.436" height="85.157"><g data-name="Group 639"><g data-name="Group 89"><g data-name="Group 87"><g data-name="Group 84"><path data-name="Path 228" d="M56.425 3.608l-.014.1a.923.923 0 01-.92.8h-1.462a.926.926 0 00-.92.8l-.949 6.64a.924.924 0 01-.921.8h-.417a.93.93 0 01-.92-1.061l.875-6.114a.929.929 0 00-.92-1.061h-.93a.929.929 0 01-.92-1.061l.014-.1a.924.924 0 01.92-.8h6.564a.928.928 0 01.92 1.061zm-9.324 0l-.014.1a.925.925 0 01-.921.8h-1.461a.925.925 0 00-.92.8l-.95 6.64a.923.923 0 01-.92.8h-.417a.93.93 0 01-.92-1.061l.874-6.114a.929.929 0 00-.92-1.061h-.93a.93.93 0 01-.92-1.061l.015-.1a.924.924 0 01.92-.8h6.564a.928.928 0 01.92 1.061zM33.458 7.045l-.159.306a.93.93 0 00.824 1.359h.228a.931.931 0 00.908-1.131l-.031-.134a7.396 7.396 0 01-.039-.174.93.93 0 00-1.731-.225zm2.628 4.944l-.07-.339-.08-.377a.921.921 0 00-.91-.74h-2.631a.912.912 0 00-.834.519l-.3.6c-.1.2-.184.374-.271.557a.909.909 0 01-.84.531h-.291a.929.929 0 01-.831-1.344q.445-.891.858-1.7.715-1.4 1.384-2.633t1.306-2.346q.5-.88 1.028-1.729a.907.907 0 01.791-.441h1a.917.917 0 01.886.647q.238.749.466 1.522.326 1.11.643 2.346t.63 2.633q.2.908.419 1.922a.929.929 0 01-.909 1.121h-.537a.921.921 0 01-.911-.749zm-15.337-8.83q.1.271.206.587.243.713.5 1.545.182.585.356 1.191a.929.929 0 001.7.2q.406-.71.813-1.395.494-.832.942-1.545.272-.431.5-.781a.907.907 0 01.776-.418h.655a.931.931 0 01.93.949q-.014.624-.045 1.324-.054 1.257-.154 2.618t-.214 2.728q-.075.9-.151 1.727a.926.926 0 01-.925.846h-.35a.929.929 0 01-.924-1.03q.08-.731.161-1.521a.929.929 0 00-1.732-.554l-.367.643c-.146.255-.28.487-.4.7a.909.909 0 01-.808.47h-.36a.918.918 0 01-.893-.675l-.142-.494c-.06-.207-.121-.419-.182-.636a.929.929 0 00-1.808.084q-.219 1.185-.405 2.247a.923.923 0 01-.915.768h-.327a.929.929 0 01-.912-1.109c.092-.472.191-.96.293-1.465q.276-1.367.567-2.728t.6-2.618q.206-.849.406-1.586a.918.918 0 01.9-.686h.846a.916.916 0 01.874.612z" fill="#0f1b2f"/></g><g data-name="Group 85"><path data-name="Path 229" d="M13.482 6.419h1.273a.929.929 0 01.526 1.7 1.793 1.793 0 01-1.041.29h-1.273a.929.929 0 01-.526-1.695 1.789 1.789 0 011.041-.291z" fill="#0f1b2f"/></g><g data-name="Group 86"><path data-name="Path 230" d="M9.013 13.028l-.144-.333q-.454-1.037-1.046-2.108a.464.464 0 00-.761-.077q-.228.268-.5.608-.575.706-1.164 1.5-.432.586-.831 1.134a3.614 3.614 0 01-3.01 1.535H.469a.465.465 0 01-.379-.734q1.033-1.451 2.285-3.016.882-1.1 1.868-2.279a3.654 3.654 0 00.442-4.114L2.343.68A.464.464 0 012.754 0H3.82a3.645 3.645 0 013.349 2.1l.952 1.976a.464.464 0 00.789.078l2.02-2.678a3.612 3.612 0 012.968-1.479h1.109a.465.465 0 01.363.754l-3.707 4.646a3.654 3.654 0 00-.334 4.142q.681 1.209 1.2 2.314.754 1.594 1.242 2.79a.465.465 0 01-.43.641h-.909a3.65 3.65 0 01-3.419-2.259z" fill="#0f1b2f"/></g></g><g data-name="Group 88" fill="#0f1b2f"><path data-name="Path 231" d="M5.534 18.219a1.867 1.867 0 011.153.391l-.189.371a1.475 1.475 0 00-.977-.352c-.879 0-1.465.742-1.465 1.941 0 1.231.638 1.967 1.426 1.967a1.161 1.161 0 00.99-.482v-.97h-.586v-.4h.99v2.188h-.367v-.2a1.618 1.618 0 01.013-.183h-.013a1.411 1.411 0 01-1.075.462c-.971 0-1.824-.886-1.824-2.371-.001-1.45.778-2.362 1.924-2.362z"/><path data-name="Path 232" d="M7.619 19.6h.417v.5a2.483 2.483 0 01-.013.254h.013c.111-.43.436-.788.795-.788a.466.466 0 01.137.019v.43a.629.629 0 00-.137-.013c-.554 0-.788.84-.788 1.453v1.42h-.424z"/><path data-name="Path 233" d="M10.505 19.522c.788 0 1.088.717 1.088 1.459 0 .085-.007.169-.013.273H9.691c.013.886.417 1.309.925 1.309a1.1 1.1 0 00.794-.339l.124.345a1.372 1.372 0 01-.957.384c-.827 0-1.323-.7-1.323-1.746.001-1.021.49-1.685 1.251-1.685zm.658 1.388c-.007-.7-.241-1.017-.664-1.017s-.73.359-.808 1.017z"/><path data-name="Path 234" d="M13.352 19.522c.788 0 1.088.717 1.088 1.459 0 .085-.007.169-.013.273h-1.889c.013.886.417 1.309.925 1.309a1.1 1.1 0 00.795-.339l.123.345a1.37 1.37 0 01-.957.384c-.827 0-1.322-.7-1.322-1.746 0-1.021.489-1.685 1.25-1.685zm.658 1.388c-.006-.7-.241-1.017-.664-1.017s-.729.359-.808 1.017z"/><path data-name="Path 235" d="M15.112 19.6h.417v.332a1.009 1.009 0 01-.019.2h.013a1.053 1.053 0 011-.612c.605 0 .846.4.846 1.042v2.314h-.43v-2.221c0-.358-.058-.729-.515-.729a.973.973 0 00-.886 1.029v1.921h-.424z"/><path data-name="Path 236" d="M19.979 18.219a1.665 1.665 0 011.081.371l-.189.377a1.413 1.413 0 00-.9-.338c-.931 0-1.478.833-1.478 1.921s.56 1.993 1.465 1.993a1.629 1.629 0 001.01-.371l.17.371a1.823 1.823 0 01-1.192.41c-1.185 0-1.9-1.048-1.9-2.39s.721-2.344 1.933-2.344z"/><path data-name="Path 237" d="M22.865 19.522c.814 0 1.348.729 1.348 1.706s-.534 1.726-1.355 1.726-1.348-.742-1.348-1.726.541-1.706 1.355-1.706zm-.007 3.048c.573 0 .918-.573.918-1.348s-.345-1.315-.918-1.315-.912.547-.912 1.315.346 1.348.912 1.348z"/><path data-name="Path 238" d="M26.155 20.864h.17v-.1c0-.671-.235-.866-.593-.866a1.377 1.377 0 00-.736.241l-.13-.339a1.545 1.545 0 01.892-.28c.664 0 .99.417.99 1.257v2.1h-.391v-.286c0-.163.013-.28.013-.28h-.013a.954.954 0 01-.841.619.859.859 0 01-.847-.964c.001-1.031.985-1.102 1.486-1.102zm-.56 1.7c.489 0 .73-.638.73-1.088v-.273h-.16c-.378 0-1.081.033-1.081.729a.563.563 0 00.511.632z"/><path data-name="Path 239" d="M27.634 19.997h-.332v-.371h.339v-.931h.417v.931h.619v.371h-.619v1.648c0 .762.339.866.554.866a.35.35 0 00.111-.013v.391a.836.836 0 01-.163.013c-.312 0-.925-.124-.925-1.218z"/><path data-name="Path 240" d="M32.351 18.219a1.666 1.666 0 011.081.371l-.189.377a1.415 1.415 0 00-.9-.338c-.931 0-1.478.833-1.478 1.921s.56 1.993 1.465 1.993a1.63 1.63 0 001.01-.371l.17.371a1.823 1.823 0 01-1.192.41c-1.185 0-1.9-1.048-1.9-2.39s.721-2.344 1.933-2.344z"/><path data-name="Path 241" d="M34.103 19.6h.417v.5a2.489 2.489 0 01-.013.254h.013c.111-.43.436-.788.795-.788a.471.471 0 01.137.019v.43a.629.629 0 00-.137-.013c-.554 0-.788.84-.788 1.453v1.42h-.424z"/><path data-name="Path 242" d="M37.062 19.522c.814 0 1.348.729 1.348 1.706s-.534 1.726-1.354 1.726-1.348-.742-1.348-1.726.539-1.706 1.354-1.706zm-.006 3.048c.573 0 .918-.573.918-1.348s-.345-1.315-.918-1.315-.912.547-.912 1.315.345 1.348.911 1.348z"/><path data-name="Path 243" d="M38.753 19.6h.437l.56 2.436c.039.156.072.352.072.352h.007s.033-.2.065-.352l.586-2.422h.43l.586 2.422a3.406 3.406 0 01.065.352h.013s.032-.189.072-.352l.566-2.436h.424l-.814 3.276h-.482l-.573-2.332c-.039-.156-.065-.359-.065-.359h-.013s-.026.2-.065.359l-.566 2.332h-.489z"/><path data-name="Path 244" d="M43.219 19.6h.417v.332a.985.985 0 01-.02.2h.013a1.052 1.052 0 011-.612c.606 0 .847.4.847 1.042v2.314h-.43v-2.221c0-.358-.058-.729-.514-.729a.973.973 0 00-.886 1.029v1.921h-.424z"/><path data-name="Path 245" d="M47.656 18.297h1.087a1.085 1.085 0 011.153 1.146 1.132 1.132 0 01-.534 1v.013a1.146 1.146 0 01.677 1.153 1.183 1.183 0 01-1.329 1.263h-1.055zm1.166 1.986c.339 0 .625-.319.625-.807a.709.709 0 00-.723-.788h-.632v1.6zm-.131 2.2a.794.794 0 00.9-.88c0-.592-.326-.931-.723-.931h-.775v1.811z"/><path data-name="Path 246" d="M51.435 18.688h-1.238v-.391h2.914v.391h-1.244v4.188h-.43z"/></g></g><g data-name="Group 239"><g data-name="Group 238"><text data-name="LAT GWARANCJI" transform="translate(30 73.156)" fill="#0f1b2f" font-size="9" font-family="SegoeUI, Segoe UI"><tspan x="-7.187" y="0">LAT</tspan><tspan x="-24.48" y="10">GWARANCJI</tspan></text><g data-name="Group 237"><path data-name="Path 352" d="M20.123 61.561h22.208v.468h-22.21v-.468z" fill="#0f1b2f" fill-rule="evenodd"/></g></g><text data-name="60" transform="translate(28.993 52.477)" fill="#0f1b2f" font-size="21" font-family="MuseoSans-100, 'Museo Sans \31 00'" font-weight="100"><tspan x="-12.747" y="0">60</tspan></text></g><text transform="translate(10 63.951)" fill="#42454a" font-size="8" font-family="MuseoSans-300, 'Museo Sans \33 00'" font-weight="300"><tspan x="-4.844" y="0">do</tspan></text></g></svg>