<svg xmlns="http://www.w3.org/2000/svg" width="60" height="66.333"><defs><clipPath id="a"><path transform="translate(0 .333)" fill="#fff" d="M0 0h60v66H0z"/></clipPath></defs><g data-name="Group 609"><path data-name="Path 507" d="M46.1 45.004V34.025a9.89 9.89 0 00-9.879-9.878H18.659a9.889 9.889 0 00-9.878 9.878v14.269h2.2V34.025a7.692 7.692 0 017.683-7.683h1.741l6.264 6.264a1.1 1.1 0 001.552 0l6.264-6.264h1.741a7.692 7.692 0 017.683 7.683v10.979zM27.44 30.281l-3.936-3.936h7.872zm0 0" fill="#fff"/><path data-name="Rectangle 353" fill="#fff" d="M18 35.333h1v11h-1z"/><g data-name="Group 608"><g data-name="Group 607" clip-path="url(#a)" fill="#fff"><path data-name="Rectangle 354" d="M36 35.333h2v8h-2z"/><path data-name="Path 508" d="M59.27 48.294h-14a16.9 16.9 0 00-7.883-2.075 2.638 2.638 0 00-.247-.011 17 17 0 00-8.132 2.072l-8.156.014a4.39 4.39 0 00-4.39 4.39 1.783 1.783 0 00.015.26 4.284 4.284 0 00.143.89l-6.188-2.835-.1-.049-3.7-1.688a4.682 4.682 0 00-6.639 4.256v.242a4.642 4.642 0 002.592 4.186l14.192 7.107a7.778 7.778 0 003.433.8h39.053a1.1 1.1 0 001.1-1.1V49.392a1.1 1.1 0 00-1.1-1.1zM43.9 63.661H20.213a5.6 5.6 0 01-2.461-.575L3.566 55.978a2.462 2.462 0 01-1.376-2.217v-.242a2.488 2.488 0 013.528-2.26l3.665 1.674.1.048 8.714 4a1.1 1.1 0 00.459.1H30.73v-2.2h-9.878a2.184 2.184 0 01-2.185-2.1.932.932 0 00-.01-.109 2.2 2.2 0 012.2-2.186h8.419a1.1 1.1 0 00.537-.14l.263-.148a14.9 14.9 0 017.035-1.807 1.062 1.062 0 00.2.021 14.676 14.676 0 016.594 1.636zm14.269 0H46.1V50.49h12.074zm0 0"/></g></g><path data-name="Rectangle 355" fill="#fff" d="M48 60.333h4v1h-4z"/><path data-name="Path 509" d="M27.439 21.957a8.79 8.79 0 008.781-8.781v-4.39A8.78 8.78 0 0027.439.005a8.78 8.78 0 00-8.78 8.781v4.39a8.791 8.791 0 008.78 8.781zM20.854 8.786A6.586 6.586 0 0127.439 2.2a6.586 6.586 0 016.586 6.586v4.39a6.586 6.586 0 01-6.586 6.586 6.586 6.586 0 01-6.585-6.586zm0 0" fill="#fff"/><path data-name="Path 510" d="M25.25 8.78a2.2 2.2 0 011.464-2.071l-.733-2.069a4.4 4.4 0 00-2.926 4.139v1.1h2.2zm0 0" fill="#fff"/></g></svg>