<svg xmlns="http://www.w3.org/2000/svg" width="56.436" height="85.157"><g data-name="Group 637"><path data-name="Path 247" d="M56.425 4.002l-.014.1a.91.91 0 01-.906.785h-1.44a.91.91 0 00-.906.786l-.936 6.541a.91.91 0 01-.906.786h-.411A.916.916 0 0150 11.955l.862-6.023a.916.916 0 00-.907-1.046h-.917a.915.915 0 01-.906-1.045l.014-.1a.911.911 0 01.907-.786h6.463A.915.915 0 0156.422 4zm-9.186 0l-.013.1a.911.911 0 01-.907.785h-1.44a.912.912 0 00-.907.786l-.935 6.541a.912.912 0 01-.907.786h-.414a.917.917 0 01-.907-1.045l.862-6.023a.915.915 0 00-.907-1.046h-.916a.916.916 0 01-.907-1.045l.014-.1a.911.911 0 01.907-.786h6.466A.915.915 0 0147.234 4zm-13.44 3.386c-.05.1-.1.2-.156.3a.915.915 0 00.812 1.339h.224a.915.915 0 00.894-1.114l-.03-.132c-.01-.044-.027-.116-.037-.172a.916.916 0 00-1.706-.222zm2.588 4.872a22.076 22.076 0 00-.069-.334l-.077-.372a.909.909 0 00-.9-.729h-2.588a.9.9 0 00-.82.512l-.293.59c-.099.198-.181.368-.266.549a.9.9 0 01-.828.523h-.286a.916.916 0 01-.819-1.324q.44-.878.846-1.675.7-1.376 1.362-2.594t1.287-2.31c.331-.577.669-1.146 1.013-1.7a.891.891 0 01.779-.435h.988a.9.9 0 01.873.638q.233.737.458 1.5.321 1.094.632 2.31t.621 2.594q.2.9.414 1.894a.916.916 0 01-.9 1.1h-.528a.908.908 0 01-.9-.737zM21.28 3.56a56.213 56.213 0 01.692 2.099c.119.385.236.776.35 1.173a.915.915 0 001.675.2c.266-.465.533-.924.8-1.374q.486-.818.927-1.521c.179-.283.343-.541.495-.769a.887.887 0 01.763-.412h.646a.917.917 0 01.915.935c-.008.41-.023.845-.043 1.3q-.054 1.238-.151 2.579t-.21 2.688q-.075.885-.149 1.7a.914.914 0 01-.912.833h-.342a.914.914 0 01-.91-1.014q.078-.722.159-1.5a.916.916 0 00-1.706-.547l-.362.634c-.144.249-.275.48-.394.689a.9.9 0 01-.8.462h-.355a.9.9 0 01-.88-.665l-.14-.487c-.059-.2-.118-.414-.179-.627a.915.915 0 00-1.781.083q-.215 1.167-.4 2.213a.909.909 0 01-.9.756h-.322a.914.914 0 01-.9-1.092q.137-.7.288-1.443.272-1.347.559-2.688t.586-2.579c.135-.558.269-1.077.4-1.562a.905.905 0 01.883-.677h.834a.9.9 0 01.862.6zm-7.16 3.211h1.256a.916.916 0 01.518 1.671 1.761 1.761 0 01-1.026.286h-1.252a.915.915 0 01-.519-1.67 1.763 1.763 0 011.025-.286zM.056 12.705l.083-2.2.134-1.386.135-1.4q.195-2.035.457-3.6A24.3 24.3 0 011.609.984a3.064 3.064 0 01.342-.758.588.588 0 01.512-.222h3.143A5.007 5.007 0 019.7 2.427a9.848 9.848 0 011.588 6.935 7.6 7.6 0 01-1.557 4.27 5.19 5.19 0 01-4.2 1.758H.594q-.387 0-.523-.713a7.369 7.369 0 01-.014-1.969zM8.337 8.71a9.882 9.882 0 00-.2-3.475 4.639 4.639 0 00-1.619-2.589 1.788 1.788 0 00-1.085-.445 1.167 1.167 0 00-.829.352 2.594 2.594 0 00-.6.951 7.987 7.987 0 00-.378 1.351q-.145.748-.238 1.71a579.886 579.886 0 01-.219 2.275 6.812 6.812 0 00.247 3.086 1.576 1.576 0 001.561 1.11 2.794 2.794 0 002.451-1.461 6.449 6.449 0 00.908-2.866z" fill="#0f1b2f"/><g data-name="Group 272"><g data-name="Group 240"><g data-name="Group 238"><text data-name="LAT GWARANCJI" transform="translate(27.241 73.156)" fill="#0f1b2f" font-size="9" font-family="SegoeUI, Segoe UI"><tspan x="-7.187" y="0">LAT</tspan><tspan x="-24.48" y="10">GWARANCJI</tspan></text><g data-name="Group 237"><path data-name="Path 352" d="M17.364 61.561h22.208v.468h-22.21v-.468z" fill="#0f1b2f" fill-rule="evenodd"/></g></g><text data-name="40" transform="translate(26.234 52.477)" fill="#0f1b2f" font-size="21" font-family="MuseoSans-100, 'Museo Sans \31 00'" font-weight="100"><tspan x="-12.705" y="0">40</tspan></text></g></g><text transform="translate(8.254 62.479)" fill="#42454a" font-size="9" font-family="MuseoSans-300, 'Museo Sans \33 00'" font-weight="300"><tspan x="-5.449" y="0">do</tspan></text></g></svg>