<svg xmlns="http://www.w3.org/2000/svg" width="104.343" height="85.157"><g data-name="Group 638"><g data-name="Group 106"><g data-name="Group 90" fill="#0f1b2f"><path data-name="Path 248" d="M31.399 18.234a1.859 1.859 0 011.149.39l-.188.37a1.47 1.47 0 00-.973-.351c-.877 0-1.461.74-1.461 1.935 0 1.227.636 1.96 1.422 1.96a1.158 1.158 0 00.987-.48v-.967h-.584v-.4h.987v2.182h-.37v-.2a1.6 1.6 0 01.013-.182h-.013a1.405 1.405 0 01-1.071.461c-.967 0-1.818-.883-1.818-2.363-.002-1.446.777-2.355 1.92-2.355z"/><path data-name="Path 249" d="M33.477 19.61h.416v.5a2.372 2.372 0 01-.013.253h.013c.11-.429.435-.785.792-.785a.478.478 0 01.137.019v.429a.624.624 0 00-.137-.013c-.552 0-.785.837-.785 1.448v1.416h-.422z"/><path data-name="Path 250" d="M36.349 19.533c.786 0 1.084.714 1.084 1.454 0 .084-.007.169-.013.273h-1.883c.013.882.416 1.305.922 1.305a1.094 1.094 0 00.792-.338l.124.344a1.366 1.366 0 01-.954.383c-.825 0-1.318-.7-1.318-1.74.004-1.019.491-1.681 1.246-1.681zm.656 1.382c-.007-.694-.24-1.013-.662-1.013s-.727.357-.805 1.013z"/><path data-name="Path 251" d="M39.191 19.533c.786 0 1.084.714 1.084 1.454 0 .084-.007.169-.013.273h-1.883c.013.882.416 1.305.922 1.305a1.094 1.094 0 00.792-.338l.123.344a1.366 1.366 0 01-.954.383c-.825 0-1.318-.7-1.318-1.74 0-1.019.488-1.681 1.247-1.681zm.656 1.382c-.007-.694-.24-1.013-.662-1.013s-.727.357-.805 1.013z"/><path data-name="Path 252" d="M40.945 19.61h.415v.331a1 1 0 01-.019.2h.013a1.047 1.047 0 01.993-.61c.6 0 .844.4.844 1.039v2.3h-.428v-2.214c0-.357-.059-.727-.513-.727a.97.97 0 00-.882 1.026v1.915h-.422z"/><path data-name="Path 253" d="M45.795 18.234a1.658 1.658 0 011.078.37l-.188.377a1.408 1.408 0 00-.9-.338c-.928 0-1.474.831-1.474 1.915s.558 1.987 1.461 1.987a1.625 1.625 0 001.006-.37l.169.37a1.817 1.817 0 01-1.188.409c-1.182 0-1.9-1.045-1.9-2.382s.729-2.338 1.936-2.338z"/><path data-name="Path 254" d="M48.672 19.533c.811 0 1.344.727 1.344 1.7s-.533 1.72-1.35 1.72-1.344-.74-1.344-1.72.539-1.7 1.35-1.7zm-.006 3.038c.571 0 .915-.571.915-1.344s-.344-1.311-.915-1.311-.909.545-.909 1.311.344 1.344.909 1.344z"/><path data-name="Path 255" d="M51.951 20.87h.169v-.1c0-.668-.234-.863-.591-.863a1.373 1.373 0 00-.733.239l-.13-.338a1.542 1.542 0 01.889-.278c.662 0 .987.416.987 1.253v2.09h-.389v-.286a2.764 2.764 0 01.013-.279h-.013a.949.949 0 01-.837.616.856.856 0 01-.844-.96c-.001-1.026.979-1.094 1.479-1.094zm-.558 1.695c.487 0 .727-.637.727-1.085v-.272h-.162c-.376 0-1.078.032-1.078.727a.562.562 0 00.514.63z"/><path data-name="Path 256" d="M53.426 20.006h-.331v-.371h.337v-.928h.416v.928h.617v.371h-.617v1.642c0 .76.338.863.552.863a.346.346 0 00.11-.013v.389a.773.773 0 01-.162.014c-.312 0-.922-.124-.922-1.214z"/><path data-name="Path 257" d="M56.413 18.317h1.11a1.275 1.275 0 011.3 1.382 1.283 1.283 0 01-1.3 1.389h-.675v1.792h-.435zm1.051 2.382a.9.9 0 00.909-1 .893.893 0 00-.909-.993h-.617v1.993z"/><path data-name="Path 258" d="M59.387 19.61h.422v2.208c0 .363.058.733.519.733a.967.967 0 00.857-1.018v-1.922h.422v3.266h-.416v-.331a1.09 1.09 0 01.02-.208h-.013a1.022 1.022 0 01-.967.617c-.61 0-.844-.409-.844-1.039z"/><path data-name="Path 259" d="M62.452 19.61h.416v.5a2.377 2.377 0 01-.013.253h.013c.11-.429.435-.785.792-.785a.477.477 0 01.137.019v.429a.621.621 0 00-.137-.013c-.552 0-.785.837-.785 1.448v1.416h-.422z"/><path data-name="Path 260" d="M65.575 20.87h.169v-.1c0-.668-.233-.863-.591-.863a1.375 1.375 0 00-.733.239l-.13-.338a1.54 1.54 0 01.889-.278c.662 0 .987.416.987 1.253v2.09h-.389v-.286c0-.162.013-.279.013-.279h-.013a.951.951 0 01-.838.616.856.856 0 01-.844-.96c0-1.026.98-1.094 1.48-1.094zm-.558 1.695c.486 0 .727-.637.727-1.085v-.272h-.162c-.376 0-1.077.032-1.077.727a.561.561 0 00.512.63z"/><path data-name="Path 261" d="M66.984 18.317h.429v3.693c0 .442.13.506.279.506a.358.358 0 00.085-.006v.383a.759.759 0 01-.149.014c-.247 0-.643-.085-.643-.8z"/><path data-name="Path 262" d="M69.712 18.317h1.084a1.082 1.082 0 011.149 1.143 1.128 1.128 0 01-.533 1v.013a1.141 1.141 0 01.675 1.149 1.18 1.18 0 01-1.324 1.259h-1.052zm1.162 1.98c.338 0 .623-.318.623-.805a.707.707 0 00-.721-.785h-.629v1.591zm-.13 2.188a.791.791 0 00.9-.876c0-.591-.324-.928-.72-.928h-.772v1.8z"/><path data-name="Path 263" d="M73.479 18.702h-1.234v-.389h2.9v.389h-1.24v4.174h-.428z"/></g><g data-name="Group 105"><g data-name="Group 92"><g data-name="Group 91"><path data-name="Path 264" d="M61.385 6.474h1.268a.915.915 0 01.885.652.914.914 0 01-.36 1.038 1.786 1.786 0 01-1.038.289h-1.269a.914.914 0 01-.884-.651.915.915 0 01.36-1.038 1.785 1.785 0 011.038-.289z" fill="#0f1b2f"/></g></g><g data-name="Group 98"><g data-name="Group 93"><path data-name="Path 265" d="M67.453 10.938a3.282 3.282 0 00.772-.077 1.683 1.683 0 00.517-.208.907.907 0 00.306-.313 1.269 1.269 0 00.141-.4.777.777 0 00-.307-.786 5.226 5.226 0 00-1.412-.675 9.212 9.212 0 01-.879-.383 2.72 2.72 0 01-.753-.542 2.044 2.044 0 01-.473-.793 2.333 2.333 0 01-.036-1.134 3.233 3.233 0 01.463-1.2 3.323 3.323 0 01.87-.911 4.022 4.022 0 011.215-.578 5.381 5.381 0 011.511-.2 5.612 5.612 0 011.647.208q.271.084.5.175a.583.583 0 01.3.821l-.372.686a.585.585 0 01-.746.254q-.168-.071-.352-.134a3.62 3.62 0 00-1.161-.16 2.41 2.41 0 00-1.158.216.9.9 0 00-.457.661.694.694 0 00.046.445.946.946 0 00.3.327 2.489 2.489 0 00.482.264q.278.119.618.244a11.912 11.912 0 011.211.55 2.71 2.71 0 01.813.633 1.842 1.842 0 01.4.849 3.288 3.288 0 01-.028 1.182 3.088 3.088 0 01-1.315 2.094 5.184 5.184 0 01-2.984.745 7.612 7.612 0 01-1.142-.076 6.607 6.607 0 01-.878-.188 4.265 4.265 0 01-.64-.237 4.185 4.185 0 01-.439-.236l.651-1.225a.575.575 0 01.727-.268q.24.1.528.192a5.169 5.169 0 001.514.178z" fill="#0f1b2f"/></g><g data-name="Group 94"><path data-name="Path 266" d="M79.599 12.594a.584.584 0 01-.576-.495q-.042-.265-.089-.537t-.1-.573a.581.581 0 00-.573-.482h-2.924a.58.58 0 00-.516.312q-.2.372-.39.745t-.364.71a.578.578 0 01-.518.319h-.929a.583.583 0 01-.513-.857q.569-1.072 1.088-2.023.721-1.322 1.4-2.491t1.313-2.219q.555-.913 1.131-1.79a.584.584 0 01.489-.263h1.3a.582.582 0 01.561.417q.232.8.452 1.635.276 1.05.538 2.219t.518 2.491q.2 1.026.407 2.2a.583.583 0 01-.573.684zm-1.793-7.458c-.073.14-.178.331-.314.571s-.291.52-.466.836-.37.664-.584 1.044l-.183.326a.584.584 0 00.507.869h1.078a.583.583 0 00.572-.689l-.094-.51q-.107-.571-.21-1.045t-.18-.835q-.076-.362-.126-.567z" fill="#0f1b2f"/></g><g data-name="Group 95"><path data-name="Path 267" d="M90.252 3.634l-.121.687a.582.582 0 01-.573.481h-1.931a.582.582 0 00-.573.481l-1.2 6.83a.582.582 0 01-.573.481h-.989a.582.582 0 01-.573-.683l1.133-6.426a.582.582 0 00-.573-.683h-1.521a.582.582 0 01-.573-.683l.121-.687a.582.582 0 01.573-.481h6.805a.582.582 0 01.568.683z" fill="#0f1b2f"/></g><g data-name="Group 96"><path data-name="Path 268" d="M92.253 2.951h.989a.582.582 0 01.573.683l-1.5 8.479a.582.582 0 01-.573.481h-.988a.582.582 0 01-.573-.683l1.5-8.479a.582.582 0 01.572-.481z" fill="#0f1b2f"/></g><g data-name="Group 97"><path data-name="Path 269" d="M101.324 12.594a.576.576 0 01-.536-.364q-.585-1.47-1.3-2.906-.453-.912-.961-1.768a.584.584 0 00-1.073.2l-.768 4.355a.582.582 0 01-.573.481h-.961a.582.582 0 01-.573-.683l1.5-8.479a.582.582 0 01.573-.481h1a.572.572 0 01.456.219q.3.391.642.908.439.668.883 1.426t.871 1.572l.008.017a.582.582 0 001.09-.167l.616-3.494a.583.583 0 01.573-.481h.975a.582.582 0 01.573.683l-1.495 8.479a.583.583 0 01-.573.481z" fill="#0f1b2f"/></g></g><g data-name="Group 104"><g data-name="Group 99"><path data-name="Path 270" d="M3.282.175h1.562a.92.92 0 01.906 1.079l-2.362 13.4a.92.92 0 01-.906.76H.92a.92.92 0 01-.906-1.08L2.376.934a.92.92 0 01.906-.759z" fill="#0f1b2f"/></g><g data-name="Group 100"><path data-name="Path 271" d="M21.46 7.781a10.151 10.151 0 01-1.224 3.451 8.245 8.245 0 01-2.178 2.44 9.2 9.2 0 01-3.015 1.451 13.731 13.731 0 01-3.735.483q-.923 0-2.141-.077-.724-.046-1.421-.149a.926.926 0 01-.781-1.075L9.308 1.018a.916.916 0 01.761-.751q.919-.134 1.879-.192 1.3-.077 2.223-.077a12.519 12.519 0 013.473.439 5.863 5.863 0 012.493 1.385 4.878 4.878 0 011.332 2.418 8.749 8.749 0 01-.009 3.541zm-10.767 4.836q.238.023.555.033t.756.011a5.9 5.9 0 004.043-1.3 5.983 5.983 0 001.874-3.583 4.467 4.467 0 00-.547-3.627q-.971-1.231-3.542-1.231-.352 0-.727.011a7.431 7.431 0 00-.713.055z" fill="#0f1b2f"/></g><g data-name="Group 101"><path data-name="Path 272" d="M23.163 14.33L25.525.93a.919.919 0 01.905-.76h8.42a.92.92 0 01.906 1.079l-.184 1.041a.92.92 0 01-.905.76h-5.316a.92.92 0 00-.906.76l-.2 1.151a.92.92 0 00.906 1.079h3.9a.919.919 0 01.905 1.079l-.172.975a.919.919 0 01-.905.76h-4.547a.919.919 0 00-.905.76l-.323 1.832a.92.92 0 00.905 1.079h5.173a.919.919 0 01.906 1.079l-.184 1.041a.92.92 0 01-.906.76h-8.926a.92.92 0 01-.909-1.075z" fill="#0f1b2f"/></g><g data-name="Group 102"><path data-name="Path 273" d="M47.306 15.409a.922.922 0 01-.909-.781q-.066-.419-.141-.85l-.157-.906a.917.917 0 00-.906-.761h-4.619a.918.918 0 00-.815.493l-.616 1.178q-.3.572-.575 1.122a.914.914 0 01-.819.5h-1.468a.921.921 0 01-.81-1.354q.9-1.695 1.719-3.2 1.14-2.088 2.2-3.935t2.074-3.506q.878-1.443 1.787-2.828a.923.923 0 01.773-.415h2.06a.918.918 0 01.885.659q.368 1.268.714 2.583.435 1.659.85 3.506t.819 3.935q.314 1.623.642 3.47a.921.921 0 01-.906 1.081zM44.473 3.626q-.173.331-.495.9t-.736 1.32q-.414.749-.922 1.649-.144.254-.289.515a.923.923 0 00.8 1.373h1.7a.921.921 0 00.9-1.088l-.148-.806q-.169-.9-.332-1.651t-.285-1.32c-.073-.378-.14-.675-.193-.892z" fill="#0f1b2f"/></g><g data-name="Group 103"><path data-name="Path 274" d="M62.651 13.543l-.195 1.106a.92.92 0 01-.906.76h-8.311a.92.92 0 01-.906-1.08l2.362-13.4a.919.919 0 01.906-.76h1.562a.919.919 0 01.905 1.079l-1.786 10.13a.92.92 0 00.906 1.079h4.557a.92.92 0 01.906 1.086z" fill="#0f1b2f"/></g></g></g></g><g data-name="Group 241"><g data-name="Group 238"><text data-name="LAT GWARANCJI" transform="translate(48.536 73.156)" fill="#0f1b2f" font-size="9" font-family="SegoeUI, Segoe UI"><tspan x="-7.187" y="0">LAT</tspan><tspan x="-24.48" y="10">GWARANCJI</tspan></text><g data-name="Group 237"><path data-name="Path 352" d="M38.659 61.561h22.208v.468h-22.21v-.468z" fill="#0f1b2f" fill-rule="evenodd"/></g></g><text data-name="55" transform="translate(47.529 51.477)" fill="#0f1b2f" font-size="20" font-family="MuseoSans-100, 'Museo Sans \31 00'" font-weight="100"><tspan x="-11.08" y="0">55</tspan></text></g><text transform="translate(28.348 62.479)" fill="#42454a" font-size="9" font-family="MuseoSans-300, 'Museo Sans \33 00'" font-weight="300"><tspan x="-5.449" y="0">do</tspan></text></g></svg>